<?xml version="1.0" encoding="utf-8"?>
<!-- Generator: Adobe Illustrator 19.1.1, SVG Export Plug-In . SVG Version: 6.00 Build 0)  -->
<svg version="1.1" id="Слой_1" xmlns="http://www.w3.org/2000/svg" xmlns:xlink="http://www.w3.org/1999/xlink" x="0px" y="0px"
	 viewBox="0 0 50 84" style="enable-background:new 0 0 50 84;" xml:space="preserve">
<style type="text/css">
	.st0{fill-rule:evenodd;clip-rule:evenodd;fill:#B4644A;}
	.st1{fill-rule:evenodd;clip-rule:evenodd;fill:#E4E4E5;}
	.st2{fill-rule:evenodd;clip-rule:evenodd;fill:#5C794F;}
	.st3{fill:#B4644A;}
	.st4{fill:#CC7B61;}
	.st5{fill:none;stroke:#B4644A;stroke-width:1.1999;stroke-miterlimit:22.9256;}
	.st6{fill-rule:evenodd;clip-rule:evenodd;fill:#CC7746;}
	.st7{fill-rule:evenodd;clip-rule:evenodd;fill:#CC7B61;}
	.st8{fill-rule:evenodd;clip-rule:evenodd;fill:#FFFFFF;}
	.st9{fill-rule:evenodd;clip-rule:evenodd;fill:#759D5B;}
</style>
<g>
	<path class="st0" d="M25,0.1c-13.5,0-24.5,11-24.5,24.5c0,11.3,9.5,21,16,29.9h9.3h1h6.7c6.2-8.5,16-18.8,16-29.9
		C49.5,11.1,38.5,0.1,25,0.1z"/>
	<path class="st1" d="M25,0.1c-10,0-18.1,11-18.1,24.5c0,11.3,7,21,11.8,29.9h6.9h0.8h5c4.6-8.5,11.8-18.8,11.8-29.9
		C43.1,11.1,35,0.1,25,0.1z"/>
	<path class="st0" d="M25,0.1c-5.9,0-10.7,11-10.7,24.5c0,11.3,4.2,21,7,29.9c2.5,0,5,0,7.5,0c2.7-8.5,7-18.8,7-29.9
		C35.7,11.1,30.9,0.1,25,0.1z"/>
	<path class="st1" d="M25,0.1c-2.1,0-3.7,11-3.7,24.5c0,11.3,1.5,21,2.4,29.9h1.4h0.2h1c0.9-8.5,2.4-18.8,2.4-29.9
		C28.7,11.1,27.1,0.1,25,0.1z"/>
	<polygon class="st0" points="16.5,54.4 16.5,61.1 33.5,61.1 33.5,54.4 26.8,54.4 25.8,54.4 	"/>
	<path class="st2" d="M19.5,75.1v7.8c0,0.6,0.4,1,0.9,1h9.3c0.5,0,0.9-0.5,0.9-1v-7.8h-4.3h-0.7H19.5z"/>
	<path class="st3" d="M32.7,60.9l-2.8,14.2l0.6,0.1l3-14.1L32.7,60.9L32.7,60.9z M24.6,61v14.1h0.9V61H24.6L24.6,61z M16.5,61.1
		l3,14.1l0.6-0.1l-2.8-14.2L16.5,61.1z"/>
	<path class="st4" d="M25,75.1V61h-0.4v14.1H25L25,75.1z M16.5,61.1l3,14.1l0.6-0.1l-2.8-14.2L16.5,61.1z"/>
	<path class="st5" d="M30.2,75.1c-0.5,1-3.5,2.3-5.3,0"/>
	<path class="st0" d="M25.3,75.1h-0.5c-0.4,0.8-0.9,1.7-1.2,2.8C23.2,79.2,24.2,80,25,80c0.8,0,1.8-0.8,1.5-2.1
		C26.2,76.8,25.6,75.8,25.3,75.1z"/>
	<path class="st6" d="M19.8,75.1h-0.3V80c0.8,0,1.8-0.8,1.5-2.1C20.7,76.8,20.1,75.8,19.8,75.1z"/>
	<path class="st0" d="M30.3,74.9l0.2,0.2V80c-0.8,0-1.8-0.8-1.5-2.1C29.3,76.8,29.9,75.6,30.3,74.9z"/>
	<path class="st7" d="M25,0.1c-13.5,0-24.5,11-24.5,24.5c0,11.3,9.5,21,16,29.9H25C22.9,36.3,23.1,18.2,25,0.1z"/>
	<path class="st8" d="M25,0.1c-10,0-18.1,11-18.1,24.5c0,11.3,7,21,11.8,29.9H25V0.1z"/>
	<path class="st7" d="M25,0.1c-5.9,0-10.7,11-10.7,24.5c0,11.3,4.2,21,7,29.9H25C20.5,36.3,21.3,18.2,25,0.1z"/>
	<path class="st8" d="M25,0.1c-2.1,0-3.7,11-3.7,24.5c0,11.3,1.5,21,2.4,29.9H25V0.1z"/>
	<rect x="16.5" y="54.4" class="st7" width="8.5" height="6.7"/>
	<path class="st9" d="M19.5,75.1v7.8c0,0.6,0.4,1,0.9,1H25c0-1.5,0-2.5,0-3.9c-0.5-1.5-0.5-3.5,0-4.9H19.5z"/>
	<path class="st4" d="M19.5,75.2c0.1,0.2,0.3,0.5,0.6,0.7c0.4,0.3,1,0.6,1.7,0.7c0.7,0.1,1.4,0.1,2.1-0.3c0.5-0.2,0.6-0.6,1-1.1
		l0.1-0.1v-0.7l-0.3,0.5c-0.3,0.4-0.7,0.7-1.1,0.9c-0.6,0.3-1.2,0.3-1.7,0.2c-0.6-0.1-1.1-0.3-1.4-0.6c-0.2-0.2-0.3-0.3-0.4-0.4
		L19.5,75.2z"/>
	<g>
		<path class="st7" d="M25,75.1h-0.3c-0.4,0.8-0.9,1.7-1.2,2.8C23.2,79.2,24.2,80,25,80V75.1z"/>
		<path class="st7" d="M19.7,74.9l-0.1,0.2V80c0.8,0,1.8-0.8,1.5-2.1C20.7,76.8,20,75.6,19.7,74.9z"/>
	</g>
</g>
</svg>
