<?xml version="1.0" encoding="utf-8"?>
<!-- Generator: Adobe Illustrator 19.1.1, SVG Export Plug-In . SVG Version: 6.00 Build 0)  -->
<svg version="1.1" id="Слой_1" xmlns="http://www.w3.org/2000/svg" xmlns:xlink="http://www.w3.org/1999/xlink" x="0px" y="0px"
	 viewBox="0 0 800 400" style="enable-background:new 0 0 800 400;" xml:space="preserve">
<style type="text/css">
	.st0{fill-rule:evenodd;clip-rule:evenodd;fill:#FFFFFF;}
	.st1{fill-rule:evenodd;clip-rule:evenodd;fill:#B3D1CD;}
	.st2{fill-rule:evenodd;clip-rule:evenodd;fill:#A0C3B5;}
	.st3{fill-rule:evenodd;clip-rule:evenodd;fill:#DAB969;}
	.st4{fill-rule:evenodd;clip-rule:evenodd;fill:#EECF86;}
	.st5{fill-rule:evenodd;clip-rule:evenodd;fill:#F7F0AF;}
	.st6{fill-rule:evenodd;clip-rule:evenodd;fill:#818789;}
	.st7{fill-rule:evenodd;clip-rule:evenodd;fill:#979EA0;}
	.st8{fill-rule:evenodd;clip-rule:evenodd;fill:#CBD0D1;}
	.st9{fill-rule:evenodd;clip-rule:evenodd;fill:#5C794F;}
	.st10{fill-rule:evenodd;clip-rule:evenodd;fill:#759D5B;}
	.st11{fill-rule:evenodd;clip-rule:evenodd;fill:#654632;}
	.st12{fill-rule:evenodd;clip-rule:evenodd;fill:#7D5C42;}
	.st13{fill-rule:evenodd;clip-rule:evenodd;fill:#A4C557;}
	.st14{fill-rule:evenodd;clip-rule:evenodd;fill:#BBD471;}
	.st15{fill-rule:evenodd;clip-rule:evenodd;fill:#CC7B61;}
	.st16{fill-rule:evenodd;clip-rule:evenodd;fill:#F1D0CB;}
	.st17{fill-rule:evenodd;clip-rule:evenodd;fill:#D4EAF1;}
	.st18{fill-rule:evenodd;clip-rule:evenodd;fill:#E7B4A2;}
	.st19{fill-rule:evenodd;clip-rule:evenodd;fill:#CFE8F0;}
	.st20{fill-rule:evenodd;clip-rule:evenodd;fill:#7394A0;}
	.st21{fill-rule:evenodd;clip-rule:evenodd;fill:#C3D7DE;}
	.st22{opacity:0.2;fill-rule:evenodd;clip-rule:evenodd;fill:#0D0F0F;}
	.st23{fill-rule:evenodd;clip-rule:evenodd;fill:#3D5966;}
</style>
<path class="st0" d="M171.6,237.7c-5.3,0-9.8-2.9-10.7-6.6c-3.8-0.2-6.8-2.4-6.8-5.3c0-2.9,4.9-5.3,7.3-5.3c2.4,0,1.5,0.1,2.2,0.3
	c0.2-2.7,3.5-4.8,7-4.8c3.6,0,6.2,1.7,6.9,4c0.9-0.2,0-0.3,2.8-0.3c2.8,0,8.3,2.9,8.3,6c0,3.1-2.8,5.2-6.4,5.8
	C181.2,235,176.9,237.7,171.6,237.7L171.6,237.7z M295,247.4c-6.3,0-11.6-3.4-12.6-7.8c-4.5-0.2-8-2.9-8-6.2c0-3.4,5.8-6.3,8.6-6.3
	c2.9,0,1.8,0.1,2.7,0.3c0.3-3.1,4.1-5.6,8.3-5.6c4.2,0,7.3,2,8.1,4.7c1-0.3,0-0.4,3.3-0.4c3.3,0,9.8,3.4,9.8,7.1
	c0,3.6-3.2,6.2-7.6,6.9C306.3,244.3,301.2,247.4,295,247.4L295,247.4z M391.7,163.6c7.3,0,13.3,3.8,14.5,8.8
	c0.8-0.1,1.7-0.2,2.5-0.2c6.8,0,12.3,4,12.3,8.9c0,4.2-4.1,7.8-9.5,8.7c-0.5,7-8.5,12.6-18.4,12.6c-9.1,0-16.6-4.7-18.1-11
	c-6.8-0.7-12-4.9-12-10c0-5.6,6.2-10.1,13.9-10.1c0.2,0,0.3,0,0.5,0C379.2,166.9,384.9,163.6,391.7,163.6L391.7,163.6z M505.6,217.7
	c8.4,0,15.4-4.2,17.3-9.8c0.4,0,0.8,0,1.2,0c7.7,0,14-4.5,14-10.1c0-5.4-5.9-9.8-13.2-10.1c-0.9-4.1-5.7-7.2-11.6-7.2
	c-5.3,0-9.8,2.5-11.2,6c-1.3-0.3-2.6-0.5-4-0.5c-6.9,0-12.5,4.1-12.5,9.1c0,2.2,1.1,4.3,3,5.8c-0.5,1.2-0.8,2.5-0.8,3.8
	C487.8,211.9,495.8,217.7,505.6,217.7L505.6,217.7z M702.2,271.8c-8.2,0-14.9-4.3-16.2-10c-5.8-0.3-10.3-3.8-10.3-8
	c0-4.4,5-8,11.1-8c1.2,0,2.3,0.1,3.4,0.4c0.3-4,5-7.2,10.6-7.2c5.1,0,9.4,2.6,10.4,6c1.3-0.3,2.7-0.5,4.2-0.5
	c6.9,0,12.5,4.1,12.5,9.1c0,4.3-4.2,7.9-9.8,8.8C716.7,267.8,710.1,271.8,702.2,271.8L702.2,271.8z M756.7,221.2
	c-6.1,0-11.2-3.2-12.1-7.5c-4.3-0.2-7.7-2.8-7.7-6c0-3.3,3.7-6,8.3-6c0.9,0,1.7,0.1,2.6,0.3c0.2-3,3.7-5.4,8-5.4
	c3.8,0,7,1.9,7.8,4.5c1-0.3,2-0.4,3.1-0.4c5.2,0,9.4,3,9.4,6.8c0,3.2-3.1,5.9-7.3,6.6C767.5,218.2,762.6,221.2,756.7,221.2z"/>
<g>
	<path class="st1" d="M719.4,314.4c-37.7,0-69.6,35.9-80.5,85.6H800C789,350.4,757.1,314.4,719.4,314.4z"/>
	<path class="st2" d="M718.4,314.5c-37.2,0.7-68.6,36.4-79.5,85.5H717C729.6,358.5,732.1,324.4,718.4,314.5z"/>
</g>
<g>
	<path class="st1" d="M405.6,308.2c-55.8,0-103,38.5-119.2,91.8h238.4C508.6,346.7,461.4,308.2,405.6,308.2z"/>
	<path class="st2" d="M404.1,308.2c-55.1,0.7-101.6,39-117.6,91.8H402C420.6,355.5,424.4,318.9,404.1,308.2z"/>
</g>
<g>
	<path class="st1" d="M193.2,338c-37.7,0-69.6,26-80.5,62h161.1C262.8,364,230.8,338,193.2,338z"/>
	<path class="st2" d="M192.1,338c-37.2,0.5-68.6,26.4-79.5,62h78.1C203.3,369.9,205.9,345.2,192.1,338z"/>
</g>
<g>
	<g>
		<g>
			<path class="st3" d="M75.7,158.8L75.7,158.8l0,58.7h0c16.2,0,29.4-13.1,29.4-29.4C105.1,172,92,158.8,75.7,158.8z"/>
			<path class="st3" d="M75.7,136.5L75.7,136.5l0,16.2h0c1.5,0,3,0.1,4.4,0.3L75.7,136.5L75.7,136.5z M75.7,223.6v16.2l0,0l4.4-16.5
				C78.7,223.5,77.2,223.6,75.7,223.6L75.7,223.6L75.7,223.6z M92.8,219.2l13.3,10.8l-6.1-16C97.8,216,95.4,217.8,92.8,219.2
				L92.8,219.2z M107.8,203.2l17.1,0.9l-14.3-9.3C110,197.8,109,200.6,107.8,203.2L107.8,203.2z M110.5,181.5l14.3-9.3l-17.1,0.9
				C109,175.8,110,178.6,110.5,181.5L110.5,181.5z M100,162.4l6.1-16l-13.3,10.8C95.4,158.6,97.8,160.4,100,162.4z"/>
		</g>
		<g>
			<rect x="75.7" y="158.8" class="st3" width="0" height="58.7"/>
			<path class="st3" d="M75.7,136.5L75.7,136.5l0,16.2h0V136.5L75.7,136.5z M75.7,223.6v16.2l0,0L75.7,223.6L75.7,223.6z"/>
		</g>
	</g>
	<g>
		<g>
			<path class="st4" d="M75.7,158.8L75.7,158.8l0,58.7h0c-16.2,0-29.4-13.1-29.4-29.4C46.4,172,59.5,158.8,75.7,158.8z"/>
			<path class="st4" d="M75.7,136.5l-4.4,16.5c1.5-0.2,2.9-0.3,4.4-0.3h0L75.7,136.5L75.7,136.5L75.7,136.5z M75.7,223.6L75.7,223.6
				c-1.5,0-3-0.1-4.4-0.3l4.4,16.5l0,0V223.6L75.7,223.6z M58.7,219.2c-2.6-1.4-5-3.2-7.2-5.2l-6.1,16L58.7,219.2L58.7,219.2z
				 M43.7,203.2c-1.2-2.6-2.2-5.5-2.7-8.4l-14.3,9.3L43.7,203.2L43.7,203.2z M41,181.5c0.6-3,1.5-5.8,2.7-8.4l-17.1-0.9L41,181.5
				L41,181.5z M58.7,157.2l-13.3-10.8l6.1,16C53.7,160.4,56.1,158.6,58.7,157.2z"/>
		</g>
		<g>
			<rect x="75.7" y="158.8" class="st5" width="0" height="58.7"/>
			<path class="st5" d="M75.7,136.5v16.2h0L75.7,136.5L75.7,136.5L75.7,136.5z M75.7,223.6v16.2l0,0L75.7,223.6L75.7,223.6z"/>
		</g>
	</g>
</g>
<g>
	<polygon class="st6" points="685.3,400 593.9,131.3 552.9,138.3 537.7,130.4 446,400 	"/>
	<polygon class="st7" points="515.8,400 552.9,138.3 537.7,130.4 446,400 	"/>
	<polygon class="st8" points="552.9,138.3 593.9,131.3 565.6,48.3 	"/>
	<polygon class="st0" points="565.6,48.3 537.7,130.4 552.9,138.3 	"/>
</g>
<g>
	<polygon class="st6" points="554,400 487.5,258.7 458.3,262.3 447.5,258.3 380.8,400 	"/>
	<polygon class="st7" points="431.3,400 458.3,262.3 447.5,258.3 380.8,400 	"/>
	<polygon class="st8" points="458.3,262.3 487.5,258.7 467.4,216 	"/>
	<polygon class="st0" points="467.4,216 447.5,258.3 458.3,262.3 	"/>
</g>
<g>
	<polygon class="st6" points="766.9,400 690.1,235.1 656.3,239.3 643.8,234.6 566.7,400 	"/>
	<polygon class="st7" points="625.1,400 656.3,239.3 643.8,234.6 566.7,400 	"/>
	<polygon class="st8" points="656.3,239.3 690.1,235.1 666.8,185.3 	"/>
	<polygon class="st0" points="666.8,185.3 643.8,234.6 656.3,239.3 	"/>
</g>
<g>
	<path class="st9" d="M580.9,307.2c-69.1,0-127.7,39-147.8,92.8h295.5C708.6,346.2,650,307.2,580.9,307.2z"/>
	<path class="st10" d="M580.9,307.2c-69.1,0-127.7,39-147.8,92.8h165.7C609.4,356.1,605.4,317.2,580.9,307.2z"/>
</g>
<g>
	<polygon class="st6" points="414.1,400 360.6,305.7 337.2,308.1 328.5,305.4 274.8,400 	"/>
	<polygon class="st7" points="315.4,400 337.2,308.1 328.5,305.4 274.8,400 	"/>
	<polygon class="st8" points="337.2,308.1 360.6,305.7 344.5,277.2 	"/>
	<polygon class="st0" points="344.5,277.2 328.5,305.4 337.2,308.1 	"/>
</g>
<g>
	<path class="st9" d="M269.4,331.1c-51.9,0-95.8,28.9-110.9,68.9h221.7C365.2,360,321.2,331.1,269.4,331.1z"/>
	<path class="st10" d="M267.9,331.1c-51.2,0.5-94.5,29.3-109.4,68.9H266C283.3,366.6,286.9,339.1,267.9,331.1z"/>
</g>
<g>
	<path class="st9" d="M700.4,367.8c-46.5,0-85.9,13.5-99.5,32.2H800C786.3,381.3,746.9,367.8,700.4,367.8z"/>
	<path class="st10" d="M700.4,367.8c-46.5,0-85.9,13.5-99.5,32.2h124.7C725.8,384,716.5,373.5,700.4,367.8L700.4,367.8z"/>
</g>
<g>
	<path class="st11" d="M169.4,383h-2.3v4.6c0.8,0.3,1.6,0.4,2.3,0V383z"/>
	<path class="st12" d="M168.3,383h-1.2v4.6c0.4,0.2,0.8,0.2,1.2,0.3V383z"/>
	<path class="st13" d="M168.3,360.3c-4.2,6.8-6.6,14.3-6.7,23c4.4,1.4,8.8,1.5,13.3,0C174.5,375.6,172,367.9,168.3,360.3z"/>
	<path class="st14" d="M168.3,360.3c-4.2,6.8-6.6,14.3-6.7,23c2.2,0.7,4.4,1.1,6.7,1.1C168.8,381.4,169,367,168.3,360.3z"/>
</g>
<g>
	<path class="st9" d="M99.6,367.8c-46.5,0-85.9,13.5-99.5,32.2h199.1C185.4,381.3,146,367.8,99.6,367.8z"/>
	<path class="st10" d="M99.6,367.8c-46.5,0-85.9,13.5-99.5,32.2h124.7C125,384,115.6,373.5,99.6,367.8z"/>
</g>
<g>
	<path class="st11" d="M328.3,367.3H326v4.6c0.8,0.3,1.6,0.4,2.3,0V367.3z"/>
	<path class="st12" d="M327.2,367.3H326v4.6c0.4,0.2,0.8,0.2,1.1,0.3V367.3z"/>
	<path class="st13" d="M327.2,344.6c-4.2,6.8-6.6,14.3-6.7,23c4.4,1.4,8.8,1.5,13.3,0C333.4,359.9,330.9,352.2,327.2,344.6z"/>
	<path class="st14" d="M327.2,344.6c-4.2,6.8-6.6,14.3-6.7,23c2.2,0.7,4.4,1.1,6.7,1.1C327.7,365.7,327.8,351.4,327.2,344.6z"/>
</g>
<g>
	<path class="st11" d="M341.5,358.2h-1.6v3.3c0.6,0.2,1.1,0.3,1.6,0V358.2z"/>
	<path class="st12" d="M340.7,358.2h-0.8v3.3c0.3,0.1,0.6,0.2,0.8,0.2V358.2z"/>
	<path class="st13" d="M340.7,341.9c-3,4.8-4.7,10.3-4.8,16.5c3.1,1,6.3,1.1,9.6,0C345.2,352.8,343.4,347.3,340.7,341.9z"/>
	<path class="st14" d="M340.7,341.9c-3,4.8-4.7,10.3-4.8,16.5c1.6,0.5,3.2,0.8,4.8,0.8C341.1,357,341.2,346.7,340.7,341.9z"/>
</g>
<g>
	<path class="st9" d="M395.1,350.4c-49,0-90.5,20.8-104.8,49.6h209.6C485.6,371.2,444.1,350.4,395.1,350.4z"/>
	<path class="st10" d="M395.1,350.4c-49,0-90.5,20.8-104.8,49.6h130.2C430.9,373.8,419.9,358,395.1,350.4z"/>
</g>
<g>
	<path class="st11" d="M693.7,359.9h-4.1v14.5c1.4,1,2.8,1.1,4.1,0V359.9z"/>
	<path class="st12" d="M691.7,359.9h-2v14.5c0.7,0.5,1.4,0.8,2,0.8V359.9z"/>
	<ellipse class="st13" cx="691.7" cy="346.6" rx="11.7" ry="18.9"/>
	<path class="st14" d="M691.4,327.8c-6.3,0.3-11.4,8.6-11.4,18.8c0,10.4,5.2,18.8,11.7,18.8c3.4-7.2,3.8-29.4,0-37.7
		C691.6,327.8,691.5,327.8,691.4,327.8z"/>
</g>
<g>
	<path class="st11" d="M663.2,374.7h-5v10.1c1.8,0.7,3.5,0.8,5,0V374.7z"/>
	<path class="st12" d="M660.7,374.7h-2.5v10.1c0.9,0.4,1.7,0.5,2.5,0.6V374.7z"/>
	<path class="st13" d="M660.7,324.8c-9.3,14.8-14.5,31.5-14.6,50.4c9.6,3.1,19.3,3.4,29.2,0C674.4,358.4,668.8,341.6,660.7,324.8z"
		/>
	<path class="st14" d="M660.7,324.8c-9.3,14.8-14.5,31.5-14.6,50.4c4.8,1.5,9.7,2.4,14.6,2.4C661.8,371.2,662.1,339.7,660.7,324.8z"
		/>
</g>
<g>
	<path class="st11" d="M637.9,322.6h-4.1V337c1.4,1,2.8,1.1,4.1,0V322.6z"/>
	<path class="st12" d="M635.9,322.6h-2V337c0.7,0.5,1.4,0.8,2,0.8V322.6z"/>
	<ellipse class="st13" cx="635.9" cy="309.3" rx="11.6" ry="18.8"/>
	<path class="st14" d="M635.6,290.5c-6.3,0.3-11.3,8.6-11.3,18.8c0,10.4,5.2,18.8,11.6,18.8c3.4-7.2,3.8-29.3,0-37.5
		C635.8,290.5,635.7,290.5,635.6,290.5z"/>
</g>
<g>
	<path class="st11" d="M610.6,307.8h-2.4v8.6c0.9,0.6,1.7,0.7,2.4,0V307.8z"/>
	<path class="st12" d="M609.4,307.8h-1.2v8.6c0.4,0.3,0.8,0.5,1.2,0.5V307.8z"/>
	<ellipse class="st13" cx="609.4" cy="299.8" rx="7" ry="11.2"/>
	<path class="st14" d="M609.2,288.6c-3.8,0.2-6.8,5.1-6.8,11.2c0,6.2,3.1,11.2,7,11.2c2-4.3,2.3-17.5,0-22.4
		C609.3,288.6,609.3,288.6,609.2,288.6z"/>
</g>
<g>
	<path class="st11" d="M70.9,368.6h-4.1v8.2c1.5,0.6,2.8,0.6,4.1,0V368.6z"/>
	<path class="st12" d="M68.8,368.6h-2.1v8.2c0.7,0.3,1.4,0.4,2.1,0.5V368.6z"/>
	<path class="st13" d="M68.8,327.9C61.2,340,56.9,353.6,56.8,369c7.8,2.5,15.8,2.7,23.9,0C80,355.3,75.4,341.6,68.8,327.9z"/>
	<path class="st14" d="M68.8,327.9C61.2,340,56.9,353.6,56.8,369c3.9,1.3,7.9,1.9,11.9,2C69.8,365.7,70,340,68.8,327.9z"/>
</g>
<g>
	<path class="st11" d="M561.1,326.5h-2.9v5.9c1,0.4,2,0.5,2.9,0V326.5z"/>
	<path class="st12" d="M559.6,326.5h-1.5v5.9c0.5,0.2,1,0.3,1.5,0.3V326.5z"/>
	<path class="st13" d="M559.6,297.3c-5.4,8.7-8.5,18.4-8.6,29.5c5.6,1.8,11.3,2,17.1,0C567.6,317,564.4,307.1,559.6,297.3z"/>
	<path class="st14" d="M559.6,297.3c-5.4,8.7-8.5,18.4-8.6,29.5c2.8,0.9,5.7,1.4,8.6,1.4C560.3,324.4,560.5,306,559.6,297.3z"/>
</g>
<g>
	<path class="st11" d="M576.4,317.6h-2.1v4.2c0.8,0.3,1.5,0.3,2.1,0V317.6z"/>
	<path class="st12" d="M575.3,317.6h-1.1v4.2c0.4,0.1,0.7,0.2,1.1,0.2V317.6z"/>
	<path class="st13" d="M575.3,296.7c-3.9,6.2-6.1,13.2-6.1,21.1c4,1.3,8.1,1.4,12.3,0C581,310.8,578.7,303.8,575.3,296.7z"/>
	<path class="st14" d="M575.3,296.7c-3.9,6.2-6.1,13.2-6.1,21.1c2,0.6,4.1,1,6.1,1C575.8,316.2,575.9,303,575.3,296.7z"/>
</g>
<g>
	<path class="st11" d="M92.4,371.4h-4.1v14.6c1.5,1,2.8,1.1,4.1,0V371.4z"/>
	<path class="st12" d="M90.4,371.4h-2.1v14.6c0.7,0.5,1.4,0.8,2.1,0.8V371.4z"/>
	<ellipse class="st13" cx="90.4" cy="361.7" rx="14.6" ry="15.3"/>
	<path class="st14" d="M90,346.3c-7.9,0.2-14.2,7-14.2,15.3c0,8.5,6.6,15.3,14.6,15.3c4.3-5.9,4.8-23.9,0-30.7
		C90.2,346.3,90.1,346.3,90,346.3z"/>
</g>
<g>
	<path class="st11" d="M314.3,352.4h-1.6v3.3c0.6,0.2,1.1,0.3,1.6,0V352.4z"/>
	<path class="st12" d="M313.5,352.4h-0.8v3.3c0.3,0.1,0.6,0.2,0.8,0.2V352.4z"/>
	<path class="st13" d="M313.5,336.1c-3,4.8-4.7,10.3-4.8,16.5c3.1,1,6.3,1.1,9.6,0C318,347.1,316.1,341.6,313.5,336.1z"/>
	<path class="st14" d="M313.5,336.1c-3,4.8-4.7,10.3-4.8,16.5c1.6,0.5,3.2,0.8,4.8,0.8C313.9,351.2,314,340.9,313.5,336.1z"/>
</g>
<g>
	<path class="st11" d="M203.8,362.4h-1.6v3.3c0.6,0.2,1.1,0.3,1.6,0V362.4z"/>
	<path class="st12" d="M203,362.4h-0.8v3.3c0.3,0.1,0.6,0.2,0.8,0.2V362.4z"/>
	<path class="st13" d="M203,346.1c-3,4.8-4.7,10.3-4.8,16.5c3.1,1,6.3,1.1,9.6,0C207.5,357.1,205.7,351.6,203,346.1z"/>
	<path class="st14" d="M203,346.1c-3,4.8-4.7,10.3-4.8,16.5c1.6,0.5,3.2,0.8,4.8,0.8C203.4,361.3,203.5,351,203,346.1z"/>
</g>
<g>
	<path class="st11" d="M185.5,372.1h-1.6v3.3c0.6,0.2,1.1,0.3,1.6,0V372.1z"/>
	<path class="st12" d="M184.6,372.1h-0.8v3.3c0.3,0.1,0.6,0.2,0.8,0.2V372.1z"/>
	<path class="st13" d="M184.6,355.8c-3,4.8-4.7,10.3-4.8,16.5c3.1,1,6.3,1.1,9.6,0C189.1,366.8,187.3,361.3,184.6,355.8z"/>
	<path class="st14" d="M184.6,355.8c-3,4.8-4.7,10.3-4.8,16.5c1.6,0.5,3.2,0.8,4.8,0.8C185,370.9,185.1,360.6,184.6,355.8z"/>
</g>
<g>
	<path class="st11" d="M718.6,367.2h-2.4v8.6c0.9,0.6,1.7,0.7,2.4,0V367.2z"/>
	<path class="st12" d="M717.4,367.2h-1.2v8.6c0.4,0.3,0.8,0.5,1.2,0.5V367.2z"/>
	<ellipse class="st13" cx="717.4" cy="359.3" rx="7" ry="11.2"/>
	<path class="st14" d="M717.2,348.1c-3.8,0.2-6.8,5.1-6.8,11.2c0,6.2,3.1,11.2,7,11.2c2-4.3,2.3-17.5,0-22.4
		C717.3,348,717.2,348.1,717.2,348.1z"/>
</g>
<g>
	<polygon class="st15" points="636.2,359 621.2,339.3 607.9,359 	"/>
	<polygon class="st15" points="611.2,359 596.1,339.3 582.9,359 	"/>
	<polygon class="st16" points="634.6,359 621.3,341.5 609.6,359 596.2,341.5 584.5,359 584.5,400 609.6,400 614.6,400 634.6,400 	
		"/>
	<g>
		<rect x="616.9" y="360" class="st0" width="12.5" height="10.5"/>
		<rect x="617.9" y="360.8" class="st17" width="10.4" height="8.7"/>
		<rect x="622.6" y="360" class="st0" width="1" height="10.5"/>
		<rect x="616.9" y="364.7" class="st0" width="12.5" height="1"/>
		<rect x="616.9" y="376.5" class="st0" width="12.5" height="10.5"/>
		<rect x="617.9" y="377.4" class="st17" width="10.4" height="8.7"/>
		<rect x="622.6" y="376.5" class="st0" width="1" height="10.5"/>
		<rect x="616.9" y="381.2" class="st0" width="12.5" height="1"/>
	</g>
	<g>
		<rect x="589.8" y="360" class="st0" width="12.5" height="10.5"/>
		<rect x="590.8" y="360.8" class="st17" width="10.4" height="8.7"/>
		<rect x="595.5" y="360" class="st0" width="1" height="10.5"/>
		<rect x="589.8" y="364.7" class="st0" width="12.5" height="1"/>
		<rect x="589.8" y="376.5" class="st0" width="12.5" height="10.5"/>
		<rect x="590.8" y="377.4" class="st17" width="10.4" height="8.7"/>
		<rect x="595.5" y="376.5" class="st0" width="1" height="10.5"/>
		<rect x="589.8" y="381.2" class="st0" width="12.5" height="1"/>
	</g>
	<rect x="605.1" y="377.5" class="st0" width="8.8" height="15.8"/>
	<rect x="606.4" y="378.5" class="st17" width="6.3" height="13.8"/>
	<rect x="604.1" y="376.5" class="st0" width="10.8" height="1"/>
	<rect x="605.1" y="393.3" class="st15" width="8.8" height="2.2"/>
	<rect x="600.4" y="397.8" class="st15" width="18.3" height="2.2"/>
	<rect x="602.5" y="395.5" class="st15" width="14.1" height="2.2"/>
</g>
<g>
	<rect x="479.7" y="377.9" class="st0" width="36.7" height="22.1"/>
	<polygon class="st15" points="516.4,368.6 479.7,368.6 475.9,380.9 520.2,380.9 	"/>
	<rect x="491.5" y="385.4" class="st18" width="7.1" height="12.3"/>
	<rect x="492.6" y="386.5" class="st17" width="4.8" height="10.3"/>
	<rect x="494.4" y="385.4" class="st18" width="1.1" height="12.3"/>
	<rect x="491.5" y="391" class="st18" width="7.1" height="1.2"/>
	<rect x="482.4" y="385.4" class="st18" width="7.1" height="12.3"/>
	<rect x="483.5" y="386.5" class="st17" width="4.8" height="10.3"/>
	<rect x="485.3" y="385.4" class="st18" width="1.1" height="12.3"/>
	<rect x="482.4" y="391" class="st18" width="7.1" height="1.2"/>
	<rect x="503.6" y="386.3" class="st18" width="7.7" height="13.7"/>
	<rect x="504.7" y="387.2" class="st17" width="5.5" height="12"/>
	<rect x="502.7" y="385.4" class="st18" width="9.4" height="0.9"/>
	<rect x="488.2" y="364.2" class="st0" width="9" height="6.8"/>
	<rect x="487" y="360.8" class="st15" width="11.4" height="3.4"/>
</g>
<g>
	<rect x="534.9" y="354" class="st19" width="36.7" height="46"/>
	<polygon class="st20" points="571.7,349.4 534.9,349.4 531.1,361.7 575.5,361.7 	"/>
	<rect x="556.4" y="380.5" class="st0" width="7.7" height="13.7"/>
	<rect x="557.5" y="381.3" class="st17" width="5.5" height="12"/>
	<rect x="555.6" y="379.6" class="st0" width="9.4" height="0.9"/>
	<rect x="556.4" y="394.2" class="st20" width="7.7" height="1.9"/>
	<rect x="551.3" y="398.1" class="st20" width="18" height="1.9"/>
	<rect x="553.4" y="396.1" class="st20" width="13.8" height="1.9"/>
	<rect x="540.8" y="345" class="st21" width="9" height="6.8"/>
	<rect x="539.6" y="341.6" class="st20" width="11.4" height="3.4"/>
	<rect x="554" y="365.5" class="st0" width="12.5" height="10.5"/>
	<rect x="555.1" y="366.4" class="st17" width="10.4" height="8.7"/>
	<rect x="559.7" y="365.5" class="st0" width="1" height="10.5"/>
	<rect x="554" y="370.2" class="st0" width="12.5" height="1"/>
	<rect x="537.6" y="365.5" class="st0" width="12.5" height="10.5"/>
	<rect x="538.6" y="366.4" class="st17" width="10.4" height="8.7"/>
	<rect x="543.3" y="365.5" class="st0" width="1" height="10.5"/>
	<rect x="537.6" y="370.2" class="st0" width="12.5" height="1"/>
	<rect x="537.6" y="380.5" class="st0" width="12.5" height="10.5"/>
	<rect x="538.6" y="381.4" class="st17" width="10.4" height="8.7"/>
	<rect x="543.3" y="380.5" class="st0" width="1" height="10.5"/>
	<rect x="537.6" y="385.2" class="st0" width="12.5" height="1"/>
</g>
<polygon class="st22" points="609.5,400 609.6,400 614.6,400 618.7,400 634.6,400 634.6,359 636.2,359 621.2,339.3 609.5,356.7 "/>
<polygon class="st22" points="516.4,368.6 499.9,368.6 499.9,400 503.6,400 503.6,400 511.3,400 511.3,400 516.4,400 516.4,380.9 
	520.2,380.9 "/>
<polygon class="st22" points="571.7,349.4 551.3,349.4 551.3,400 569.2,400 571.7,400 571.7,361.7 575.5,361.7 "/>
<g>
	<path class="st11" d="M453.8,371.7h-4.2v8.4c1.5,0.6,2.9,0.7,4.2,0V371.7z"/>
	<path class="st12" d="M451.7,371.7h-2.1v8.4c0.7,0.3,1.4,0.5,2.1,0.5V371.7z"/>
	<path class="st13" d="M451.7,330.2c-7.7,12.3-12.1,26.2-12.2,41.9c7.9,2.5,16,2.8,24.3,0C463.1,358.1,458.4,344.2,451.7,330.2z"/>
	<path class="st14" d="M451.7,330.2c-7.7,12.3-12.1,26.2-12.2,41.9c4,1.3,8.1,2,12.2,2C452.6,368.8,452.9,342.6,451.7,330.2z"/>
</g>
<g>
	<path class="st11" d="M417.5,365.7h-3v6c1.1,0.4,2.1,0.5,3,0V365.7z"/>
	<path class="st12" d="M416,365.7h-1.5v6c0.5,0.2,1,0.3,1.5,0.3V365.7z"/>
	<path class="st13" d="M416,336c-5.6,8.8-8.7,18.8-8.7,30c5.7,1.8,11.5,2,17.4,0C424.2,356,420.8,346,416,336z"/>
	<path class="st14" d="M416,336c-5.6,8.8-8.7,18.8-8.7,30c2.9,0.9,5.8,1.4,8.7,1.4C416.7,363.6,416.9,344.8,416,336z"/>
</g>
<g>
	<polygon class="st15" points="274.3,361.4 290.6,361.4 307.8,376.6 307.8,388.7 274.3,388.7 	"/>
	<rect x="228.1" y="353.6" class="st4" width="46.3" height="35.1"/>
	<polygon class="st19" points="283.6,363.9 289.9,363.9 303,375.5 303,377.8 283.6,377.8 	"/>
	<path class="st23" d="M228.1,388.7h80.2c1.3,0,2.3,1,2.3,2.3l0,0c0,1.3-1,2.3-2.3,2.3h-80.2c-1.3,0-2.3-1-2.3-2.3l0,0
		C225.8,389.7,226.8,388.7,228.1,388.7z"/>
	<path class="st23" d="M245.6,399.7c3.4,0,6.2-2.8,6.2-6.2s-2.8-6.2-6.2-6.2c-3.4,0-6.2,2.8-6.2,6.2S242.2,399.7,245.6,399.7z"/>
	<path class="st8" d="M245.6,396.1c1.4,0,2.6-1.2,2.6-2.6c0-1.4-1.2-2.6-2.6-2.6c-1.4,0-2.6,1.2-2.6,2.6
		C243,395,244.2,396.1,245.6,396.1z"/>
	<path class="st23" d="M294.1,399.7c3.4,0,6.2-2.8,6.2-6.2s-2.8-6.2-6.2-6.2s-6.2,2.8-6.2,6.2S290.7,399.7,294.1,399.7z"/>
	<path class="st8" d="M294.1,396.1c1.4,0,2.6-1.2,2.6-2.6c0-1.4-1.2-2.6-2.6-2.6c-1.4,0-2.6,1.2-2.6,2.6
		C291.5,395,292.7,396.1,294.1,396.1z"/>
	<rect x="305.6" y="381.1" class="st0" width="2.2" height="6.5"/>
	<rect x="251.2" y="353.6" class="st3" width="23.1" height="35.1"/>
</g>
<g>
	<path class="st0" d="M196.1,198.6c15.3,1.3,24.1,4.6,30.9,12.3c1.5-10.2,7.1-17.7,19.3-27.1c-12.8,7.4-18.9,12.8-21.5,19.5
		C218.9,199,210.8,197.8,196.1,198.6z"/>
	<path class="st0" d="M260.6,173c11.9,2.2,18.6,5.4,23.3,12c2-7.9,6.9-13.3,17.2-19.8c-10.6,4.8-15.8,8.6-18.4,13.7
		C278.5,175.1,272.2,173.6,260.6,173z"/>
	<path class="st0" d="M215,149.9c11.9,2.2,18.6,5.4,23.3,12c2-7.9,6.9-13.3,17.2-19.8c-10.6,4.8-15.8,8.6-18.4,13.7
		C232.9,152,226.6,150.4,215,149.9z"/>
	<path class="st0" d="M314.3,192.3c8.4,1.5,13,3.8,16.4,8.4c1.4-5.5,4.9-9.4,12-13.9c-7.4,3.4-11.1,6-12.9,9.6
		C326.8,193.7,322.4,192.6,314.3,192.3z"/>
</g>
</svg>
