<?xml version="1.0" encoding="utf-8"?>
<!-- Generator: Adobe Illustrator 19.1.1, SVG Export Plug-In . SVG Version: 6.00 Build 0)  -->
<svg version="1.1" id="Слой_1" xmlns="http://www.w3.org/2000/svg" xmlns:xlink="http://www.w3.org/1999/xlink" x="0px" y="0px"
	 viewBox="0 0 24 21" style="enable-background:new 0 0 24 21;" xml:space="preserve">
<style type="text/css">
	.st0{fill:#BBD471;}
</style>
<path class="st0" d="M3.8,13.6C3.8,13.6,3.8,13.6,3.8,13.6C3.8,13.6,3.8,13.6,3.8,13.6z"/>
<path class="st0" d="M4,14.5L4,14.5c0-0.2-0.1-0.5-0.1-0.7C3.9,14,3.9,14.2,4,14.5z"/>
<path class="st0" d="M4.8,16.9C4.8,16.9,4.8,16.9,4.8,16.9C4.8,16.9,4.8,16.9,4.8,16.9z"/>
<path class="st0" d="M4.8,16.7c0,0,0-0.1-0.1-0.1C4.7,16.6,4.7,16.7,4.8,16.7z"/>
<path class="st0" d="M4.2,15.4c0.1,0.4,0.3,0.8,0.5,1.2C4.5,16.2,4.3,15.8,4.2,15.4L4.2,15.4z"/>
<path class="st0" d="M13.9,3.7c0.5,0,0.9,0,1.3,0.1l0.1-0.8c0,0-1.2-0.4-2.7-0.2l-0.1-0.4c0.5-0.1,0.8-0.5,0.8-1
	c0-0.6-0.5-1.1-1.1-1.1c-0.6,0-1.1,0.5-1.1,1.1c0,0.5,0.4,0.9,0.8,1l0.1,0.5c-1.6,0.2-2.9,0.9-2.9,0.9l0.2,0.7
	c1-0.3,1.8-0.5,2.6-0.6C12.8,3.7,13.4,3.7,13.9,3.7z"/>
<path class="st0" d="M4.8,7.6L4.8,7.6c0-0.1,0.1-0.1,0.1-0.2L4.6,7.2L4.1,6.8c0,0-0.8,0.7-1.4,2c0,0-0.1-0.1-0.1-0.1
	C2.5,8.6,2.2,8.5,1.9,8.5h0c-0.2,0-0.3-0.1-0.4-0.1c0.1-0.1,0.1-0.3,0.1-0.4c0-0.4-0.3-0.7-0.7-0.7S0.2,7.5,0.2,7.9
	c0,0.4,0.3,0.7,0.7,0.7c0.1,0,0.1,0,0.2,0c0.2,0.2,0.4,0.3,0.8,0.3c0.2,0,0.3,0,0.4,0.2c0.1,0.1,0.1,0.3,0.2,0.4c0,0,0,0,0,0
	c-0.4,1.2-0.3,2.7-0.3,2.7l1.1,0c0-0.5,0.1-1.5,0.4-2.2C4.1,8.5,4.8,7.6,4.8,7.6z"/>
<path class="st0" d="M23.1,4.6c-0.4,0-0.7,0.3-0.7,0.7c0,0.1,0,0.1,0,0.2c-0.2,0.2-0.3,0.4-0.3,0.8c0,0.2,0,0.3-0.2,0.4
	c-0.1,0.1-0.2,0.1-0.3,0.1C20.9,5.7,19.9,5,19.9,5l-0.8,0.8c0.6,0.5,1.2,1.2,1.7,2c0.4,0.6,0.8,1.3,1.1,2l1-0.5c0,0-0.5-1.2-1.1-2.2
	c0.1,0,0.2-0.1,0.3-0.2c0.2-0.2,0.3-0.4,0.3-0.8c0-0.2,0.1-0.3,0.1-0.4c0.1,0.1,0.3,0.1,0.4,0.1c0.4,0,0.7-0.3,0.7-0.7
	S23.5,4.6,23.1,4.6z"/>
<path class="st0" d="M20.4,13.8c-1.4,0.7-3.7,1.6-6.8,2C12.4,16,11.3,16,10.2,16c-1.4,0-2.6-0.1-3.6-0.2c-1.1-0.1-1.9-0.3-2.4-0.4
	c0.1,0.4,0.3,0.8,0.5,1.2c0,0,0,0,0,0c0,0,0,0.1,0.1,0.1c0,0,0,0.1,0.1,0.1c0,0,0,0,0,0c0.3,0.6,0.7,1.1,1.1,1.5
	c1.4,1.6,2.9,1.8,2.9,1.8l0,0l0,0c0,0,1.3,0.4,3.3,0.4c1.9,0,3.9-0.4,5.7-1.2c1.3-0.7,2.6-1.7,3.3-2.7c0.5-0.7,0.8-1.5,1.1-2.3
	c0.1-0.4,0.2-1.1,0.1-1.8C21.9,13,21.3,13.4,20.4,13.8z"/>
<path class="st0" d="M17.5,14c1-0.3,1.8-0.7,2.5-1c1.1-0.5,1.8-1,2.1-1.2c-0.3-1-1-2.6-1.7-3.6c-1-1.4-2-2.3-2.9-2.8v1.9
	c1,0,1.7,0.8,1.7,1.7c0,1-0.8,1.7-1.7,1.7V14z M9.3,15.2c1.3,0,2.7,0,4.2-0.2c1.5-0.2,2.9-0.6,4-0.9v-3.3h0c-1,0-1.7-0.8-1.7-1.7
	c0-1,0.8-1.7,1.7-1.7l0,0h0V5.3c-1-0.6-1.8-0.9-2.4-1c-0.4-0.1-0.8-0.1-1.2-0.1c-0.4,0-1,0-1.7,0.1C11.4,4.5,10.6,4.7,9.6,5
	C9.5,5,9.4,5,9.3,5.1v2.1c1.6,0,2.8,1.3,2.8,2.8c0,1.6-1.3,2.8-2.8,2.8V15.2z M5.3,7.9c0,0.1-0.7,0.9-1.1,2.3
	c-0.4,1-0.3,2.4-0.3,2.5v0c0,0.3,0,0.7,0.1,1c0,0,0,0,0,0c0,0,0,0.1,0,0.1c0,0.2,0.1,0.5,0.1,0.7c0.5,0.1,2.6,0.6,5.3,0.7v-2.4h0
	c-1.6,0-2.8-1.3-2.8-2.8s1.3-2.8,2.8-2.8l0,0h0V5.1C8.1,5.5,7,6.2,6.1,7l0,0C5.9,7.2,5.6,7.5,5.3,7.9z"/>
</svg>
