<?xml version="1.0" encoding="utf-8"?>
<!-- Generator: Adobe Illustrator 19.1.1, SVG Export Plug-In . SVG Version: 6.00 Build 0)  -->
<svg version="1.1" id="Слой_1" xmlns="http://www.w3.org/2000/svg" xmlns:xlink="http://www.w3.org/1999/xlink" x="0px" y="0px"
	 viewBox="0 0 37 31" style="enable-background:new 0 0 37 31;" xml:space="preserve">
<style type="text/css">
	.st0{fill-rule:evenodd;clip-rule:evenodd;fill:#7CAFBD;}
</style>
<g>
	<path class="st0" d="M33,17.6h1.2c3.5,0,3.6-3.9,0-3.9l-1.2,0V14l0,0c0.9,0,1.6,0.7,1.6,1.6c0,0.9-0.7,1.6-1.6,1.6l0,0V17.6z
		 M4.5,17.6H33v-0.3c-0.9,0-1.6-0.7-1.6-1.6c0-0.9,0.7-1.6,1.6-1.6v-0.3c-9.5,0-19,0-28.5,0V14c0.9,0,1.6,0.7,1.6,1.6
		c0,0.9-0.7,1.6-1.6,1.6V17.6z M3.3,17.6h1.2v-0.3c-0.9,0-1.6-0.7-1.6-1.6c0-0.9,0.7-1.6,1.6-1.6v-0.3l-1.2,0
		C-0.3,13.7-0.1,17.6,3.3,17.6z"/>
	<circle class="st0" cx="20.9" cy="2" r="1.6"/>
	<path class="st0" d="M33.6,15.2L22.4,2.7c-0.3-0.3-0.7-0.3-1-0.1l0,0c-0.3,0.3-0.3,0.7-0.1,1l11.2,12.5c0.3,0.3,0.7,0.3,1,0.1l0,0
		C33.8,15.9,33.9,15.5,33.6,15.2z"/>
	<circle class="st0" cx="16.6" cy="2" r="1.6"/>
	<path class="st0" d="M3.9,15.2L16.1,1.5c0.3-0.3,0.7-0.3,1-0.1l0,0c0.3,0.3,0.3,0.7,0.1,1L4.9,16.1c-0.3,0.3-0.7,0.3-1,0.1l0,0
		C3.6,15.9,3.6,15.5,3.9,15.2z"/>
	<path class="st0" d="M28.2,18.8H34l-1.5,8.7c-0.3,1.9-1.2,3.3-4.1,3.3h-0.1v-2.6c0.4-0.2,0.7-0.6,0.8-1.1c0.1-1,0.3-2,0.4-3
		c0.1-1,0.3-2,0.4-3c0.1-0.7-0.4-1.2-1.1-1.2l0,0c-0.2,0-0.3,0-0.5,0.1V18.8z M23.5,18.8h4.7v1.2c-0.5,0.2-0.9,0.6-1,1.1
		c-0.1,1-0.2,2-0.3,3c-0.1,1-0.2,2-0.3,3c-0.1,0.7,0.4,1.2,1.1,1.2l0,0c0.2,0,0.4,0,0.6-0.1v2.6h-4.7v-2.5c0.5-0.1,0.9-0.6,1-1.2
		c0.1-1,0.2-2,0.2-3c0.1-1,0.2-2,0.2-3c0.1-0.7-0.5-1.2-1.2-1.2l0,0c-0.1,0-0.1,0-0.2,0V18.8z M18.7,18.8h4.8v1.1
		c-0.6,0.1-1.1,0.6-1.2,1.2c0,1-0.1,2-0.1,3c0,1-0.1,2-0.1,3c0,0.7,0.5,1.2,1.1,1.2l0,0c0.1,0,0.2,0,0.3,0v2.5h-4.8v-2.5
		c0.6,0,1.2-0.5,1.2-1.2c0-1,0-2,0-3c0-1,0-2,0-3c0-0.7-0.6-1.2-1.3-1.2l0,0h0V18.8z M14,18.8h4.8v1.1c-0.7,0-1.3,0.5-1.3,1.2
		c0,1,0,2,0,3c0,1,0,2,0,3c0,0.7,0.6,1.2,1.2,1.2l0,0h0v2.5H14v-2.5c0.1,0,0.2,0,0.3,0l0,0c0.6,0,1.2-0.5,1.1-1.2c0-1-0.1-2-0.1-3
		c0-1-0.1-2-0.1-3c0-0.6-0.5-1.1-1.2-1.2V18.8z M9.2,18.8H14v1.1c-0.1,0-0.1,0-0.2,0l0,0c-0.7,0-1.3,0.5-1.2,1.2c0.1,1,0.2,2,0.2,3
		c0.1,1,0.2,2,0.2,3c0,0.6,0.5,1,1,1.2v2.5H9.2v-2.6c0.2,0.1,0.4,0.1,0.6,0.1l0,0c0.6,0,1.1-0.5,1-1.2c-0.1-1-0.2-2-0.3-3
		c-0.1-1-0.2-2-0.3-3c-0.1-0.5-0.5-1-1-1.1V18.8z M9.1,30.7c-2.9,0-3.8-1.4-4.1-3.3l-1.5-8.7h5.7v1.2c-0.1,0-0.3-0.1-0.5-0.1l0,0
		c-0.7,0-1.2,0.5-1.1,1.2c0.1,1,0.3,2,0.4,3c0.1,1,0.3,2,0.4,3c0.1,0.5,0.4,0.9,0.8,1.1v2.6H9.1z"/>
</g>
</svg>
