<?xml version="1.0" encoding="utf-8"?>
<!-- Generator: Adobe Illustrator 19.1.1, SVG Export Plug-In . SVG Version: 6.00 Build 0)  -->
<svg version="1.1" id="Слой_1" xmlns="http://www.w3.org/2000/svg" xmlns:xlink="http://www.w3.org/1999/xlink" x="0px" y="0px"
	 viewBox="0 0 31 31" style="enable-background:new 0 0 31 31;" xml:space="preserve">
<style type="text/css">
	.st0{fill:#7CAFBD;}
</style>
<g>
	<path class="st0" d="M20.8,30.7h3.8V0.9h-2V0.3h-1.8v2.5h1.8V20l0,0h-1.8v2.1h1.8v2.4l0,0h-1.8v1.7h1.8v2.4l0,0h-1.8V30.7z M19,0.3
		v0.6h-3.8v1.9h5.6V0.3H19L19,0.3z M15.2,30.7h5.6v-2H19v-2.4h1.8v-1.7H19v-2.4h1.8V20h-5.6v2.1H17v2.4l0,0h-1.8v1.7H17v2.4l0,0
		h-1.8V30.7z M15.2,0.9H9.6v1.9h5.6V0.9L15.2,0.9z M9.6,30.7h5.6v-2h-1.8v-2.4h1.8v-1.7h-1.8v-2.4h1.8V20H9.6v2.1h1.8v2.4l0,0H9.6
		v1.7h1.8v2.4l0,0H9.6V30.7z M9.6,0.9H5.8v29.8h3.8v-2H7.8v-2.4h1.8v-1.7H7.8v-2.4h1.8V20H7.8V2.8h1.8V0.9z"/>
</g>
</svg>
