<?xml version="1.0" encoding="utf-8"?>
<!-- Generator: Adobe Illustrator 19.1.1, SVG Export Plug-In . SVG Version: 6.00 Build 0)  -->
<svg version="1.1" id="Слой_1" xmlns="http://www.w3.org/2000/svg" xmlns:xlink="http://www.w3.org/1999/xlink" x="0px" y="0px"
	 viewBox="0 0 31 31" style="enable-background:new 0 0 31 31;" xml:space="preserve">
<style type="text/css">
	.st0{fill:#7CAFBD;}
</style>
<path class="st0" d="M16.6,30.7c0.8-0.1,1.6-0.2,2.3-0.3c0.5-0.1,1-0.3,1.5-0.4c0.2-0.1,0.5-0.2,0.7-0.3c0.5-0.2,0.9-0.4,1.3-0.6
	c0.2-0.1,0.4-0.2,0.6-0.4c1-0.5,1.8-1.2,2.7-1.9c0.2-0.2,0.4-0.3,0.5-0.5c0.2-0.2,0.3-0.3,0.5-0.5c0.2-0.3,0.5-0.5,0.7-0.8
	c0.4-0.5,0.7-0.9,1-1.4c0.1-0.1,0.2-0.3,0.2-0.4c0.1-0.2,0.2-0.4,0.4-0.6c0.1-0.1,0.1-0.2,0.2-0.3c0.1-0.2,0.2-0.4,0.3-0.7
	c0.1-0.2,0.2-0.5,0.3-0.7c0.2-0.5,0.3-0.9,0.4-1.4c0.1-0.2,0.1-0.5,0.2-0.7c0.1-0.2,0.1-0.5,0.1-0.7c0-0.3,0.1-0.5,0.1-0.8
	c0.1-0.5,0.1-1,0.1-1.6c0-0.5,0-1-0.1-1.6c0-0.3-0.1-0.5-0.1-0.8c0-0.3-0.1-0.5-0.1-0.7c0-0.2-0.1-0.5-0.2-0.7
	c-0.1-0.5-0.3-1-0.4-1.4c0-0.1-0.1-0.2-0.1-0.3c-0.1-0.3-0.3-0.7-0.4-1c-0.1-0.1-0.1-0.2-0.2-0.3c-0.1-0.2-0.2-0.4-0.4-0.6
	c-0.4-0.6-0.8-1.2-1.2-1.8c-0.2-0.3-0.5-0.6-0.7-0.8c-0.2-0.2-0.3-0.4-0.5-0.5c-0.2-0.2-0.3-0.3-0.5-0.5c-0.3-0.3-0.7-0.6-1.1-0.9
	c-0.5-0.4-1-0.7-1.6-1c-0.2-0.1-0.4-0.2-0.6-0.4c-0.1,0-0.2-0.1-0.3-0.1c-0.1-0.1-0.2-0.1-0.4-0.2c-0.1,0-0.1,0-0.2-0.1
	c-0.2-0.1-0.3-0.1-0.5-0.2c0,0,0,0,0,0c-0.2-0.1-0.4-0.1-0.6-0.2c0,0-0.1,0-0.1,0C19.9,1,19.5,0.8,19,0.7c-0.1,0-0.3-0.1-0.4-0.1
	c-0.1,0-0.2,0-0.3-0.1c-0.5-0.1-1.1-0.2-1.7-0.2v1.3c0.6,0,1.2,0.1,1.8,0.2C18.3,2,18.1,2,18,2c-0.1,0-0.1,0.1-0.2,0.2
	c-0.3,0.1-0.5-0.1-0.8-0.1c0,0.1,0.1,0.2,0.2,0.2c0.2,0.1,0.4,0.1,0.7,0.1c0.2,0,0.3,0,0.5,0c0.1-0.1,0.1-0.2,0.2-0.3
	c0,0,0.1-0.1,0.1-0.1c0.2,0,0.3,0.1,0.5,0.1c0,0.1-0.2,0.1-0.2,0.2c0.1,0.1,0.4,0,0.5-0.1c0,0,0.1,0,0.1,0c0.2,0.1,0.4,0.1,0.7,0.2
	c0.3,0.1,0.6,0.2,0.9,0.4c-0.1,0-0.1,0.1-0.2,0.1c-0.1,0-0.2-0.2-0.3-0.1c0,0.2,0.2,0.2,0.3,0.3c0.1,0.1,0.3,0.2,0.3,0.3
	c-0.1,0.3-0.3,0-0.5,0c-0.2,0-0.5,0.4-0.7,0.1c0-0.2,0.3-0.2,0.3-0.4c0,0-0.1,0-0.1,0c-0.1,0-0.1,0.1-0.2,0.1
	c-0.1,0.1-0.2,0.1-0.3,0.1c-0.1,0-0.2,0-0.3,0c-0.2,0.1-0.3,0.2-0.5,0.3c-0.1,0-0.2,0-0.3,0c-0.2,0.1-0.4,0.2-0.6,0.3
	c-0.2,0.1-0.4,0.2-0.6,0.3c-0.1,0.1-0.2,0.3-0.2,0.3c0,0.1,0.2,0.1,0.2,0.2c0,0.1-0.1,0.2,0,0.3c0.1,0.1,0.2,0,0.3,0
	c0.2,0,0.4,0.2,0.6,0.3c0.1,0.1,0.3,0.2,0.5,0.2c0.2,0,0.5-0.1,0.5,0.1C19.2,6,19,6,19,6.1c0.1,0.2-0.1,0.2-0.1,0.4
	c0,0.1,0.1,0.3,0.3,0.3c0.2,0,0.4-0.2,0.5-0.3c0.1-0.2,0-0.4,0.2-0.6c0.7,0,1.4-0.3,1.3-1.1c0-0.1,0-0.2,0-0.3
	c0-0.1,0.2-0.2,0.2-0.4c0.1,0,0.1-0.1,0.2-0.2c0.1-0.1,0.1-0.2,0.2-0.3c0,0,0,0,0,0c0.1,0,0.1,0,0.2,0c0.1,0,0.3,0.1,0.4,0.1
	c0.1,0,0.2-0.1,0.3-0.1c0.2,0,0.2,0.2,0.4,0.3c0.1,0.1,0.2,0.1,0.2,0.2c0,0.2-0.2,0.2-0.1,0.3c0,0,0,0,0,0c0,0.1,0.2,0.3,0.2,0.3
	c0.1,0,0.3,0,0.4-0.1c0.1-0.1,0.2-0.2,0.3-0.3c0.2,0.1,0.3,0.2,0.5,0.4c0,0.1,0,0.1,0,0.2c0,0.2,0,0.3,0,0.5c0,0.3,0.4,0.2,0.5,0.4
	c0,0,0.1,0.1,0.1,0.2c0.1,0.1,0.2,0.1,0.2,0.2c0,0.3-0.2,0.3-0.2,0.6C25,7,24.8,7,24.8,7.2c0,0.2,0.4,0.1,0.5,0.3
	c0.1,0.1,0,0.2,0,0.3c0.1,0.1,0.1,0.4-0.1,0.4C25,8.1,25,8,24.9,7.9c-0.1,0-0.2,0-0.3,0c-0.1,0-0.2,0-0.3,0c-0.2,0-0.4,0-0.5-0.1
	c0.2-0.2,0.4-0.5,0.7-0.7C24.6,7,24.7,7,24.7,6.8c-0.1-0.1-0.3,0-0.4,0.1C24.1,7,24,7.1,23.8,7.1c-0.3,0-0.6-0.1-0.8,0.1
	c0,0.1,0.2,0.1,0.2,0.3c-0.1,0-0.2,0-0.3,0c-0.1-0.1,0-0.2-0.1-0.2c-0.1-0.1-0.4-0.1-0.5-0.1c-0.2,0-0.3,0.1-0.3,0.3
	c0.2,0.1,0.5-0.1,0.6,0.1c-0.1,0.2-0.4,0.3-0.3,0.6c0,0.1,0.1,0.2,0.2,0.3c0.1,0,0.1-0.1,0.2-0.1c0.1,0,0.1,0.1,0.2,0.1
	c0.2-0.1,0.2-0.3,0.4-0.3c0.2,0.3-0.2,0.4-0.4,0.5c-0.3,0.1-0.6,0.1-0.8,0.2c-0.1,0-0.5,0.4-0.5,0.1c0-0.2,0.2-0.1,0.2-0.3
	c-0.2,0-0.5,0.1-0.7,0.2c-0.3,0.1-0.9,0.2-0.9,0.5c0,0.1,0,0.2,0,0.3c0,0-0.3,0-0.4,0.1c-0.2,0.1-0.3,0.2-0.4,0.2
	c-0.1,0-0.2,0-0.2,0c-0.1,0-0.2,0.2-0.3,0.3c-0.1,0-0.2,0.1-0.2,0.1c-0.1,0.1-0.1,0.3-0.2,0.3c-0.1,0-0.2-0.1-0.3,0
	c0,0.2,0.1,0.5,0,0.7c-0.2,0.2-0.4,0.3-0.6,0.4c-0.1,0.1-0.3,0.1-0.4,0.2c-0.1,0.1-0.2,0.2-0.3,0.3c-0.1,0-0.2,0.1-0.2,0.1v6.8
	c0.1-0.1,0.2-0.2,0.2-0.2c0.1-0.2,0.1-0.3,0.3-0.4c0.2-0.1,0.3,0,0.5-0.1c0.1,0,0.2-0.1,0.3-0.2c0.1-0.1,0.2-0.2,0.3-0.1
	c0.1,0.1-0.2,0.2,0,0.3c0.2,0.1,0.3-0.2,0.5-0.2c0,0,0.2,0.1,0.3,0.2c0.1,0.1,0.2,0.2,0.3,0.2c0.1,0,0.2,0,0.3,0
	c0.2,0,0.3,0.2,0.4,0.2c0.1,0,0.2-0.2,0.3-0.2c0.3-0.1,0.4,0,0.5,0.2c0.1,0,0.1-0.2,0.3-0.1c-0.1,0.1,0,0.2,0.1,0.3
	c0,0.1,0,0.1,0.1,0.2c0.1,0.1,0.2,0.1,0.3,0.1c0.1,0.1,0.2,0.2,0.3,0.4c0.1,0.2,0.4,0.3,0.5,0.3c0.2,0,0.3,0,0.5,0
	c0.3,0,0.5,0.2,0.8,0.4c0.1,0.1,0.2,0.2,0.3,0.3c0,0.1,0,0.2,0,0.3c0.1,0.2,0.4,0.3,0.3,0.6c0,0.1,0.2,0.1,0.3,0.2
	c0.1,0.1,0.2,0.2,0.3,0.2c0.1,0,0.1,0,0.2,0c0.2,0,0.3,0.1,0.5,0.1c0.1,0,0.2,0.1,0.3,0.1c0.1,0.1,0.1,0.2,0.2,0.3
	c0.1,0,0.2,0,0.3,0c0.2,0,0.4,0.1,0.5,0.1c0.1,0,0.2,0,0.3,0c0.2,0,0.3,0.1,0.5,0.3c-1.9,3.1-4.9,5.3-8.5,6.2c0-0.1-0.1-0.3-0.1-0.4
	c0-0.3,0-0.5,0-0.8c0-0.2-0.1-0.5-0.2-0.7c-0.1-0.1-0.4-0.4-0.6-0.5c-0.1-0.1-0.2-0.1-0.4-0.1c-0.3-0.1-0.8-0.4-0.9-0.6
	c0-0.1,0-0.2-0.1-0.3c0-0.1-0.1-0.1-0.1-0.2V30.7z M0.6,12.4c-0.1,0.2-0.1,0.5-0.1,0.7c0,0.3-0.1,0.5-0.1,0.8
	c-0.1,0.5-0.1,1-0.1,1.6c0,0.5,0,1,0.1,1.6c0,0.3,0.1,0.5,0.1,0.8c0,0.3,0.1,0.5,0.1,0.7c0.1,0.2,0.1,0.5,0.2,0.7
	c0.1,0.5,0.3,1,0.4,1.4c0.1,0.2,0.2,0.5,0.3,0.7c0.1,0.2,0.2,0.5,0.3,0.7c0.1,0.1,0.1,0.2,0.2,0.3c0.1,0.2,0.2,0.4,0.4,0.6
	c0.4,0.6,0.8,1.2,1.2,1.8c0.2,0.3,0.5,0.6,0.7,0.8c0.2,0.2,0.3,0.4,0.5,0.5c0.2,0.2,0.3,0.3,0.5,0.5c0.8,0.7,1.7,1.4,2.7,1.9
	c0.2,0.1,0.4,0.2,0.6,0.4c0.4,0.2,0.9,0.4,1.3,0.6c0.2,0.1,0.5,0.2,0.7,0.3c1.5,0.5,3.2,0.8,4.9,0.8c0.4,0,0.7,0,1.1,0v-5.3
	c-0.1-0.1-0.1-0.2-0.2-0.2c-0.2-0.3-0.4-0.7-0.5-1c-0.1-0.2-0.2-0.3-0.3-0.5c-0.1-0.1-0.3-0.1-0.3-0.3c0-0.1-0.1-0.3-0.1-0.5
	c0-0.1,0.3-0.3,0.3-0.4c0-0.1-0.2-0.2-0.2-0.3c-0.1-0.2,0-0.4,0.1-0.6c0-0.1,0.1-0.2,0.1-0.2c0.1-0.1,0.2-0.1,0.3-0.2
	c0-0.1,0.1-0.2,0.1-0.2c0.1-0.2,0.3-0.2,0.4-0.4c0-0.1,0.1-0.7,0-0.9c0-0.1-0.1-0.2-0.2-0.3c-0.1-0.2-0.1-0.4-0.3-0.4
	c-0.1,0-0.2,0.1-0.3,0.2c0,0.1,0,0.2-0.1,0.3c-0.2,0.1-0.2-0.2-0.5-0.3c-0.1,0-0.2,0-0.3,0c-0.2-0.1-0.2-0.3-0.4-0.4
	c-0.1-0.1-0.3,0-0.3-0.2c0-0.1,0-0.2,0-0.3c-0.2-0.1-0.3-0.5-0.5-0.6c-0.1-0.1-0.3-0.1-0.5-0.1c-0.1,0-0.1-0.1-0.2-0.1
	c-0.1,0-0.2,0-0.3-0.1c-0.3-0.2-0.5-0.7-0.9-0.6c-0.2,0-0.3,0.2-0.5,0.2c-0.1,0-0.4-0.1-0.6-0.2c-0.2-0.1-0.4-0.1-0.6-0.2
	c-0.1-0.1-0.2-0.2-0.3-0.2c-0.1,0-0.2,0-0.3-0.1c-0.1,0-0.2-0.1-0.3-0.2c-0.1-0.1-0.2-0.2-0.3-0.3c0-0.1,0.1-0.2,0.1-0.3
	c0-0.4-0.2-0.6-0.4-0.9c-0.1-0.2-0.3-0.3-0.4-0.5c0-0.1,0-0.1,0-0.2c-0.1-0.1-0.2-0.2-0.3-0.4c-0.1-0.1-0.3-0.3-0.3-0.4
	c0-0.2,0.1-0.3,0-0.5c-0.1-0.3-0.5-0.2-0.5,0.2c0,0.1,0.2,0.2,0.2,0.3c0,0.1,0,0.2,0.1,0.4c0,0.1,0.2,0.2,0.2,0.4
	c0.1,0.2,0.1,0.4,0.1,0.6c0.1,0.1,0.3,0.2,0.1,0.4c-0.1,0-0.2-0.1-0.3-0.2c-0.1,0-0.2-0.1-0.3-0.3c0-0.1,0.1-0.2,0-0.3
	c-0.1-0.2-0.5-0.2-0.5-0.5c0-0.1,0.2-0.2,0.2-0.3c0-0.2-0.2-0.3-0.3-0.4c0-0.1,0-0.3-0.1-0.5c0-0.2,0-0.3,0-0.5
	c0-0.1-0.2-0.3-0.3-0.3c-0.1-0.1-0.2,0-0.3-0.2c-0.1-0.1-0.1-0.3-0.1-0.4c0-0.2,0-0.4,0-0.6c0-0.2,0-0.4,0-0.6
	C5.9,9.8,6,9.7,6.1,9.6c0.1-0.1,0.1-0.2,0.1-0.3C6.3,9,6.6,8.8,6.8,8.6C6.9,8.4,7.1,8.2,7.2,8c0-0.1,0.1-0.3,0.1-0.4
	c0-0.2-0.3-0.3-0.3-0.5C7.1,7,7.2,7,7.3,6.9c0-0.1,0-0.2,0-0.3c0-0.2-0.1-0.3,0-0.5C7.3,6,7.5,6,7.4,5.8C7.3,5.6,7.1,5.9,7,5.8
	C6.9,5.7,7,5.6,7,5.4c0-0.1,0-0.1,0-0.2C7,5.2,7.1,5,7.1,5C7.1,4.9,7,4.8,6.9,4.7c1.8-1.4,3.9-2.4,6.2-2.8l0,0c0,0,0.1,0.1,0.1,0.1
	c0.1-0.1,0.3,0,0.4,0c0.1,0,0.3-0.1,0.4,0c0.3,0,0.7,0.3,0.9,0.2c0.1,0,0-0.1,0.1-0.2c0-0.1,0.1-0.2,0.1-0.3c0.1,0,0.2,0,0.3,0
	c0.3,0,0.7,0,1,0V0.3c-0.3,0-0.5,0-0.8,0c-0.1,0-0.2,0-0.3,0c-0.2,0-0.3,0-0.5,0c-1.5,0-3,0.3-4.4,0.8c-0.2,0.1-0.5,0.2-0.7,0.3
	c-0.1,0-0.1,0.1-0.2,0.1C9.6,1.5,9.4,1.6,9.2,1.7C9,1.8,8.8,1.9,8.6,2C8.4,2.1,8.2,2.2,7.9,2.3C7.1,2.8,6.3,3.4,5.5,4
	C5.5,4.1,5.4,4.2,5.3,4.3C5.1,4.4,4.9,4.6,4.8,4.8C4.6,4.9,4.4,5.1,4.3,5.3C4,5.6,3.8,5.8,3.5,6.1C3.1,6.7,2.7,7.3,2.3,7.9
	C2.2,8.2,2.1,8.4,2,8.6C1.9,8.7,1.9,8.8,1.8,8.9c-0.2,0.3-0.3,0.7-0.4,1c0,0.1-0.1,0.2-0.1,0.3c-0.2,0.5-0.3,0.9-0.4,1.4
	C0.7,11.9,0.7,12.2,0.6,12.4L0.6,12.4z M16.6,12.3v6.8c-0.1,0-0.1,0.1-0.1,0.1c-0.1,0-0.3-0.2-0.4-0.2c-0.4-0.2-0.5,0.1-0.8,0.1
	c-0.3,0-0.7-0.4-0.7-0.7c0-0.2,0.1-0.4,0.1-0.6c0-0.2,0.1-0.2,0.1-0.4c0-0.2-0.3-0.3-0.4-0.4c-0.3-0.1-0.7,0.1-1,0
	c-0.1-0.1,0.1-0.2,0.1-0.3c0-0.1,0-0.1,0-0.2c0-0.1,0.1-0.2,0.2-0.3c0-0.1,0-0.2,0.1-0.3c0-0.1,0.1-0.2,0.1-0.3c0-0.1,0-0.2-0.1-0.3
	c-0.3,0-0.4,0-0.6,0.1c-0.3,0.2-0.3,0.6-0.6,0.7c-0.1,0-0.3,0-0.4,0.1c-0.1,0-0.2,0.1-0.4,0.1c-0.1,0-0.4-0.1-0.5-0.2
	c-0.1-0.1-0.2-0.5-0.3-0.5c-0.1-0.5,0-0.9,0.2-1.2c0-0.1,0.1-0.1,0.1-0.2c0-0.1,0-0.3,0-0.4c0.1-0.2,0.3-0.3,0.6-0.5
	c0.2-0.1,0.4-0.3,0.7-0.3c0.1,0,0.3,0,0.5,0.1c0.1,0,0.2,0.1,0.3,0.1c0.3,0,0.4-0.2,0.6-0.3c0.2,0,0.4,0,0.6,0
	c0.2,0,0.3,0.2,0.4,0.2c0.1,0,0.2-0.1,0.3-0.1c0.1,0,0.3,0.2,0.3,0.3c0,0.1-0.1,0.3-0.1,0.4c0.1,0.2,0.4,0.2,0.6,0.3
	c0.1-0.1,0-0.3,0-0.5c0-0.1,0-0.1,0-0.2c0-0.1-0.1-0.2-0.1-0.3C16.1,12.6,16.3,12.4,16.6,12.3z"/>
</svg>
