<?xml version="1.0" encoding="utf-8"?>
<!-- Generator: Adobe Illustrator 19.1.1, SVG Export Plug-In . SVG Version: 6.00 Build 0)  -->
<svg version="1.1" id="Слой_1" xmlns="http://www.w3.org/2000/svg" xmlns:xlink="http://www.w3.org/1999/xlink" x="0px" y="0px"
	 viewBox="0 0 31 31" style="enable-background:new 0 0 31 31;" xml:space="preserve">
<style type="text/css">
	.st0{fill:#7CAFBD;}
</style>
<path class="st0" d="M12.1,24c2.2,0,4.4-0.6,6.4-1.8l8.4,8.4l3.8-3.8l-8.4-8.4c2.8-4.6,2.3-10.7-1.7-14.6c-2.3-2.3-5.4-3.5-8.5-3.5
	v3.5c4.6,0,8.4,3.8,8.4,8.4c0,4.6-3.8,8.4-8.4,8.4V24z M3.8,20.6c2.3,2.3,5.3,3.4,8.3,3.5v-3.4c-4.6,0-8.4-3.8-8.4-8.4
	c0-4.6,3.8-8.4,8.4-8.4V0.3c-3,0-6,1.2-8.3,3.5C-0.8,8.4-0.8,15.9,3.8,20.6z"/>
</svg>
