<?xml version="1.0" encoding="utf-8"?>
<!-- Generator: Adobe Illustrator 19.1.1, SVG Export Plug-In . SVG Version: 6.00 Build 0)  -->
<svg version="1.1" id="Слой_1" xmlns="http://www.w3.org/2000/svg" xmlns:xlink="http://www.w3.org/1999/xlink" x="0px" y="0px"
	 viewBox="0 0 72 72" style="enable-background:new 0 0 72 72;" xml:space="preserve">
<style type="text/css">
	.st0{fill-rule:evenodd;clip-rule:evenodd;fill:#8FAED8;}
</style>
<path class="st0" d="M65.2,70v-2.6h2.6v-2.6v-2.6v-2.6v-2.6h-2.6v-2.6h2.6h2.6v2.6v2.6v2.6v2.6v2.6V70h-2.6H65.2L65.2,70z
	 M65.2,51.6V49h2.6v-2.6h-2.6v-2.6h2.6v-2.6h-2.6v-2.6h2.6h2.6v2.6v2.6v2.6V49h-2.6v2.6H65.2L65.2,51.6z M65.2,35.9v-2.6h2.6h2.6
	v-2.6V28v-2.6h-2.6V28v2.6v2.6v2.6H65.2L65.2,35.9z M65.2,22.8v-2.6h2.6v-2.6v-2.6v-2.6V9.7V7h-2.6V4.4h2.6h2.6V7v2.6v2.6v2.6v2.6
	v2.6v2.6h-2.6H65.2z M65.2,4.4V7h-2.6h-1.3V4.4h1.3H65.2L65.2,4.4z M65.2,20.2v2.6h-2.6h-1.3v-2.6h1.3H65.2L65.2,20.2z M65.2,33.3
	v2.6h-2.6h-1.3V25.4h1.3V28v2.6v2.6H65.2L65.2,33.3z M65.2,38.5v2.6h-2.6v2.6h2.6v2.6h-2.6V49h2.6v2.6h-2.6v2.6v2.6h-1.3V46.4h1.3
	v-2.6h-1.3v-5.2h1.3H65.2L65.2,38.5z M65.2,67.4V70h-2.6h-1.3v-2.6h1.3H65.2L65.2,67.4z M61.3,62.1v-2.6h1.3h2.6v2.6v2.6h-2.6v-2.6
	H61.3L61.3,62.1z M61.3,17.5V9.7h1.3h2.6v2.6v2.6v2.6h-2.6H61.3z M61.3,4.4V7h-1.3h-2.6h-2.6v2.6v2.6v2.6v2.6v2.6h2.6h2.6h1.3v2.6
	h-1.3h-2.6h-2.6h-2.6v-2.6v-2.6v-2.6v-2.6V9.7V7V4.4h2.6h2.6h2.6H61.3L61.3,4.4z M61.3,9.7h-1.3h-2.6v2.6v2.6v2.6h2.6h1.3V9.7
	L61.3,9.7z M61.3,25.4v10.5h-1.3v-2.6v-2.6h-2.6h-2.6v2.6h-2.6v2.6h-1.3v2.6h1.3h2.6h2.6v-2.6h-2.6v-2.6h2.6v-2.6V28h2.6v-2.6H61.3
	L61.3,25.4z M61.3,38.5v5.2h-1.3v-2.6v-2.6H61.3L61.3,38.5z M61.3,46.4v10.5h-1.3h-2.6h-2.6v2.6h2.6v2.6v2.6v2.6h2.6h1.3V70h-1.3
	h-2.6h-2.6v-2.6v-2.6h-2.6v2.6h-1.3v-2.6h1.3v-2.6h-1.3v-5.2h1.3v2.6v2.6h2.6h2.6h2.6h1.3v-2.6h-1.3v-2.6v-2.6v-2.6V49v-2.6H61.3
	L61.3,46.4z M50.8,54.3h1.3h2.6h2.6v-2.6V49v-2.6v-2.6v-2.6h-2.6h-2.6h-1.3v2.6h1.3h2.6v2.6V49v2.6h-2.6h-1.3V54.3L50.8,54.3z
	 M50.8,49h1.3v-2.6h-1.3V49L50.8,49z M50.8,28v-2.6h1.3h2.6V28h-2.6H50.8z M50.8,25.4V28h-1.3v2.6v2.6v2.6h1.3v2.6h-1.3v-2.6h-2.6
	v-2.6v-2.6V28h2.6v-2.6h-2.6v-2.6v-2.6h2.6v2.6v2.6H50.8L50.8,25.4z M50.8,41.1v2.6h-1.3h-2.6v-2.6h2.6H50.8L50.8,41.1z M50.8,46.4
	V49h-1.3v-2.6H50.8L50.8,46.4z M50.8,51.6v2.6h-1.3h-2.6v-2.6h2.6H50.8L50.8,51.6z M50.8,56.9v5.2h-1.3v2.6h1.3v2.6h-1.3V70h-2.6
	v-2.6v-2.6v-2.6v-2.6h2.6v-2.6H50.8L50.8,56.9z M46.8,7V4.4h2.6V7H46.8z M46.8,7v2.6v2.6v2.6v2.6v2.6 M46.8,17.5h2.6v-2.6v-2.6h-2.6
	 M46.8,4.4V7v2.6v2.6v2.6v2.6v2.6h-1.3v-2.6h1.3 M46.8,22.8v2.6h-1.3v-2.6H46.8L46.8,22.8z M46.8,28v2.6h-1.3V28H46.8L46.8,28z
	 M46.8,33.3v2.6h-1.3v-2.6H46.8L46.8,33.3z M46.8,41.1v2.6v2.6V49v2.6v2.6h-1.3V41.1H46.8L46.8,41.1z M46.8,62.1v2.6h-1.3v-2.6H46.8
	L46.8,62.1z M46.8,4.4h-1.3v7.9 M46.8,22.8v-2.6 M46.8,12.3h-1.3 M45.5,4.4v7.9h-1.3v2.6v2.6h1.3v2.6h-1.3h-1.3V9.7h1.3V7h-1.3V4.4
	h1.3H45.5L45.5,4.4z M45.5,22.8v2.6h-1.3V28h1.3v2.6h-1.3v2.6h1.3v2.6h-1.3h-1.3V25.4h1.3v-2.6H45.5L45.5,22.8z M45.5,41.1v13.1
	h-1.3h-1.3v5.2h1.3v-2.6v-2.6v-2.6h-1.3V49h1.3v-2.6v-2.6v-2.6H45.5L45.5,41.1z M45.5,62.1v2.6h-1.3h-1.3v-2.6h1.3H45.5L45.5,62.1z
	 M42.9,70v-2.6h1.3V70H42.9z M35,62.1h1.3v2.6v2.6H39V70h-2.6H35V62.1L35,62.1z M42.9,4.4V7h-1.3v2.6h1.3v10.5h-1.3v-2.6v-2.6v-2.6
	V9.7H39v2.6h-2.6V9.7H39V7h-2.6v2.6H35V4.4h1.3H39h2.6H42.9L42.9,4.4z M42.9,25.4v10.5h-1.3v-2.6v-2.6V28v-2.6H39V28v2.6v2.6v2.6
	h-2.6v2.6H35v-5.2h1.3v-2.6H35v-7.9h1.3v2.6H39v-2.6h2.6v2.6H42.9L42.9,25.4z M42.9,49v2.6h-1.3V49H42.9L42.9,49z M42.9,54.3h-1.3
	v2.6H39v-2.6v-2.6V49h-2.6v-2.6H39h2.6v-2.6v-2.6v-2.6H39v2.6v2.6h-2.6v-2.6H35v10.5h1.3v2.6H35v5.2h1.3v-2.6H39v2.6h2.6h1.3V54.3
	L42.9,54.3z M42.9,62.1h-1.3H39v2.6h2.6h1.3V62.1L42.9,62.1z M42.9,67.4V70h-1.3v-2.6H42.9L42.9,67.4z M35,17.5h1.3H39v-2.6h-2.6H35
	V17.5z M29.8,35.9h1.3v2.6h-1.3V35.9L29.8,35.9z M29.8,51.6h1.3v2.6v2.6v2.6v2.6v2.6h2.6v-2.6H35V70h-1.3h-2.6h-1.3v-2.6h1.3v-2.6
	h-1.3V51.6L29.8,51.6z M35,4.4v5.2h-1.3V7h-2.6V4.4h2.6H35L35,4.4z M35,14.9v2.6h-1.3h-2.6v2.6v2.6h-1.3V12.3h1.3v2.6h2.6H35
	L35,14.9z M35,22.8h-1.3v2.6V28h-2.6v-2.6h-1.3V28h1.3v2.6h-1.3v2.6h1.3h2.6v2.6v2.6H35v-5.2h-1.3v-2.6H35V22.8L35,22.8z M35,41.1
	h-1.3v2.6h-2.6v2.6h2.6V49v2.6H35V41.1L35,41.1z M35,54.3h-1.3v2.6v2.6H35V54.3z M21.9,46.4h1.3v-2.6h-1.3v-2.6h1.3h2.6v-2.6v-2.6
	h2.6h1.3v2.6h-1.3v2.6h-2.6v2.6h2.6v2.6h-2.6V49h2.6v2.6h1.3v13.1h-1.3h-2.6v-2.6h2.6v-2.6v-2.6v-2.6v-2.6h-2.6V49h-2.6h-1.3V46.4
	L21.9,46.4z M29.8,70h-1.3h-2.6v-2.6h2.6h1.3V70L29.8,70z M29.8,12.3v10.5h-1.3h-2.6v-2.6h2.6v-2.6h-2.6v-2.6v-2.6V9.7V7V4.4h2.6V7
	v2.6v2.6H29.8L29.8,12.3z M29.8,25.4h-1.3h-2.6h-2.6h-1.3v10.5h1.3v-2.6v-2.6V28h2.6h2.6h1.3V25.4L29.8,25.4z M29.8,30.6v2.6h-1.3
	h-2.6v-2.6h2.6H29.8L29.8,30.6z M21.9,70h1.3v-2.6v-2.6v-2.6v-2.6v-2.6v-2.6v-2.6h-1.3V70L21.9,70z M21.9,22.8V4.4h1.3V7v2.6v2.6
	v2.6v2.6v2.6v2.6H21.9z M14,33.3h1.3H18v2.6h-2.6v2.6v2.6v2.6v2.6H18h2.6h1.3V49h-1.3H18h-2.6H14V33.3L14,33.3z M21.9,43.8v-2.6
	h-1.3v-2.6H18v2.6v2.6h2.6H21.9L21.9,43.8z M21.9,4.4v18.4h-1.3H18h-2.6H14v-2.6h1.3H18h2.6v-2.6v-2.6v-2.6V9.7V7H18h-2.6H14V4.4
	h1.3H18h2.6H21.9L21.9,4.4z M21.9,25.4h-1.3V28v2.6v2.6v2.6h1.3V25.4L21.9,25.4z M21.9,51.6V70h-1.3H18h-2.6H14v-2.6h1.3H18h2.6
	v-2.6v-2.6v-2.6v-2.6v-2.6H18h-2.6H14v-2.6h1.3H18h2.6H21.9L21.9,51.6z M14,64.7h1.3H18v-2.6v-2.6v-2.6h-2.6H14V64.7L14,64.7z
	 M14,30.6v-5.2h1.3H18V28h-2.6v2.6H14L14,30.6z M14,17.5h1.3H18v-2.6v-2.6V9.7h-2.6H14V17.5z M4.9,25.4h2.6V28h2.6v2.6v2.6h2.6H14
	V49h-1.3v-2.6h-2.6v-2.6h2.6v-2.6v-2.6v-2.6h-2.6v-2.6H7.5v2.6v2.6v2.6v2.6v2.6V49H4.9v-2.6v-2.6v-2.6v-2.6v-2.6v-2.6v-2.6V28V25.4
	L4.9,25.4z M14,4.4V7h-1.3h-2.6H7.5v2.6v2.6v2.6v2.6v2.6h2.6h2.6H14v2.6h-1.3h-2.6H7.5H4.9v-2.6v-2.6v-2.6v-2.6V9.7V7V4.4h2.6h2.6
	h2.6H14L14,4.4z M14,9.7h-1.3h-2.6v2.6v2.6v2.6h2.6H14V9.7L14,9.7z M14,25.4h-1.3V28v2.6H14V25.4L14,25.4z M14,51.6v2.6h-1.3h-2.6
	H7.5v2.6v2.6v2.6v2.6v2.6h2.6h2.6H14V70h-1.3h-2.6H7.5H4.9v-2.6v-2.6v-2.6v-2.6v-2.6v-2.6v-2.6h2.6h2.6h2.6H14L14,51.6z M14,56.9
	h-1.3h-2.6v2.6v2.6v2.6h2.6H14V56.9z"/>
</svg>
