<?xml version="1.0" encoding="utf-8"?>
<!-- Generator: Adobe Illustrator 19.1.1, SVG Export Plug-In . SVG Version: 6.00 Build 0)  -->
<svg version="1.1" id="Слой_1" xmlns="http://www.w3.org/2000/svg" xmlns:xlink="http://www.w3.org/1999/xlink" x="0px" y="0px"
	 viewBox="0 0 100.1 100.1" style="enable-background:new 0 0 100.1 100.1;" xml:space="preserve">
<style type="text/css">
	.st0{fill-rule:evenodd;clip-rule:evenodd;fill:#E4E4E5;}
	.st1{fill-rule:evenodd;clip-rule:evenodd;fill:#FFFFFF;}
	.st2{fill:#FFFFFF;}
	.st3{fill-rule:evenodd;clip-rule:evenodd;fill:#F7F0AF;}
	.st4{fill:#B2C9E4;}
	.st5{fill-rule:evenodd;clip-rule:evenodd;fill:#CC7B61;}
	.st6{fill-rule:evenodd;clip-rule:evenodd;fill:#CC7B61;stroke:#CC7B61;stroke-width:0.216;stroke-miterlimit:22.9256;}
</style>
<g>
	<path class="st0" d="M100.1,19.3V81c0,10.6-8.7,19.3-19.2,19.3H19.2C8.7,100.3,0,91.6,0,81V19.2C0,8.7,8.7,0,19.2,0h61.7
		C91.5,0,100.1,8.7,100.1,19.3z"/>
	<g>
		<path class="st1" d="M90.9,2.8l-10.7,27l4.7,2L95,6.2C93.8,4.9,92.4,3.8,90.9,2.8z"/>
		<path class="st2" d="M89.5,26.5c1.3,6.7,3.7,18.2,10.6,30.8v10.5c-0.6-0.9-1.3-1.9-1.8-2.8c-9.6-15.4-12.6-29.6-14.1-37.5
			L89.5,26.5z"/>
		<path class="st1" d="M98.5,11.4l-96.5,78c0.8,1.6,1.7,3,2.8,4.3L100,16.8C99.7,14.9,99.2,13.1,98.5,11.4z"/>
		<path class="st1" d="M85.3,99.8V0.5C83.9,0.2,82.4,0,80.9,0h-0.8v100.3h0.8C82.4,100.3,83.9,100.1,85.3,99.8z"/>
		<rect x="0" y="24.9" class="st1" width="100.1" height="5.1"/>
		<ellipse class="st1" cx="82.7" cy="27.4" rx="15" ry="15.1"/>
		<ellipse class="st3" cx="82.7" cy="27.4" rx="10.1" ry="10.2"/>
		<polygon class="st1" points="51.3,56 54.2,51.8 0,27.8 0,33.3 		"/>
		<path class="st1" d="M82.7,3.6l0.1-3.5C82.2,0,81.5,0,80.9,0H64.5L82.7,3.6z"/>
		<polygon class="st1" points="22.1,26.5 26.5,29 28.9,0 24.3,0 		"/>
		<path class="st1" d="M29,7.5l-0.4-5.7H11.2C8.4,3.1,5.9,5.1,4,7.5H29z"/>
		<polygon class="st1" points="83.8,9 84.4,3.2 25.8,1.7 25.1,7.5 		"/>
		<polygon class="st1" points="38.3,28.5 43.9,27.5 43.7,6 38.1,7.6 		"/>
		<polygon class="st1" points="56.3,27.9 62,26.9 61.8,5.4 56.1,7 		"/>
		<polygon class="st1" points="83.9,79.8 83.6,74.7 32.1,67.3 32.4,72.5 		"/>
		<polygon class="st1" points="84.4,98.6 84.2,93.5 11.7,83.7 11.9,88.9 		"/>
		<polygon class="st1" points="25.4,89 31.8,90.9 51.9,72.6 45.5,70.7 		"/>
		<path class="st1" d="M100.1,64.9L98.7,65l1.3,17.8c0.1-0.6,0.1-1.2,0.1-1.9V64.9z"/>
		<path class="st1" d="M95.2,93.8l-12.4,0.5l0.2,5.1l4-0.1C90.2,98.2,93,96.3,95.2,93.8z"/>
		<polygon class="st1" points="100.1,63.7 81.7,72.6 81.9,79.7 100.1,70.9 		"/>
		<polygon class="st1" points="29.8,100.3 32.7,90.4 27.6,88.2 24.1,100.3 		"/>
		<polygon class="st1" points="83.6,56.4 85,50.7 49,50.7 48.3,56.4 		"/>
		<polygon class="st3" points="32.3,71.4 42.1,73.9 28.6,86 16.3,84.4 		"/>
		<path class="st3" d="M0,24.9h22.2l1.5-17.7L4.1,7.4C1.5,10.7,0,14.8,0,19.2V24.9z"/>
		<polygon class="st0" points="43.7,8 43.9,24.9 56.3,24.9 56.2,8.3 		"/>
		<polygon class="st0" points="80.1,3.1 28.8,1.8 28.9,0 64.5,0 		"/>
	</g>
	<polygon class="st1" points="0,71.3 35.4,47.3 33.5,42.5 0,65.3 	"/>
	<g>
		<path class="st1" d="M26.9,79.4c2.8,5.3,5.9,10.5,8.3,15.9c0.7,1.6,1.4,3.3,2.1,4.9H19.2c-2.2,0-4.4-0.4-6.4-1.1
			c0.6-4.8,0.7-10.3-1.1-14.8C8.3,78.6,4.4,73.2,0,68.1V46.3c9.2,8.4,17.2,17.9,24,28.4l0.7-0.2L26.9,79.4
			C26.9,79.4,26.9,79.4,26.9,79.4z"/>
		<path class="st4" d="M22.1,80.7c0,0.1,0.1,0.1,0.1,0.2c3.1,5.2,5.8,10.4,8.2,15.8c0.5,1.2,1,2.4,1.5,3.6h-6.4
			c-0.2-0.4-0.4-0.9-0.6-1.3c0,0.4-0.1,0.9-0.1,1.3h-5.6c-0.3,0-0.7,0-1,0c0.8-6.3,0.4-12.4-1.7-17.5C11.9,75.1,6.4,67.8,0,60.9v-8
			C8.8,61.5,16.1,70.9,22.1,80.7L22.1,80.7z"/>
	</g>
</g>
<g>
	<path class="st5" d="M51.7,12.7c-7.6,0-13.8,6.2-13.8,13.8c0,1.6,0.4,3.9,1.1,5.3l12.8,29.6l12.8-29.8c0.6-1.3,1-3.5,1-5.2
		C65.5,18.8,59.3,12.7,51.7,12.7z"/>
	<g>
		<polygon class="st5" points="50.1,57.8 53.2,57.8 51.7,61.4 		"/>
		<polygon class="st5" points="49.9,57.2 53.5,57.2 51.9,60.9 51.4,60.9 		"/>
		<polygon class="st5" points="49.6,56.7 53.7,56.7 52.1,60.4 51.2,60.4 		"/>
		<polygon class="st5" points="49.4,56.2 53.9,56.2 52.3,59.9 51,59.9 		"/>
		<polygon class="st5" points="49.2,55.7 54.2,55.7 52.6,59.3 50.8,59.3 		"/>
		<polygon class="st5" points="49,55.1 54.4,55.1 52.8,58.8 50.5,58.8 		"/>
		<polygon class="st5" points="48.7,54.6 54.6,54.6 53,58.3 50.3,58.3 		"/>
		<polygon class="st5" points="48.5,54.1 54.8,54.1 53.3,57.7 50.1,57.7 		"/>
		<polygon class="st5" points="48.3,53.6 55.1,53.6 53.5,57.2 49.9,57.2 		"/>
		<polygon class="st5" points="48,53 55.3,53 53.7,56.7 49.6,56.7 		"/>
		<polygon class="st5" points="47.8,52.5 55.5,52.5 53.9,56.2 49.4,56.2 		"/>
		<polygon class="st5" points="47.6,52 55.7,52 54.2,55.6 49.2,55.6 		"/>
		<polygon class="st5" points="47.4,51.5 56,51.5 54.4,55.1 48.9,55.1 		"/>
		<polygon class="st5" points="47.1,50.9 56.2,50.9 54.6,54.6 48.7,54.6 		"/>
		<polygon class="st5" points="46.9,50.4 56.4,50.4 54.8,54.1 48.5,54.1 		"/>
		<polygon class="st5" points="46.7,49.9 56.6,49.9 55.1,53.5 48.3,53.5 		"/>
		<polygon class="st5" points="46.5,49.4 56.9,49.4 55.3,53 48,53 		"/>
		<polygon class="st5" points="46.2,48.8 57.1,48.8 55.5,52.5 47.8,52.5 		"/>
		<polygon class="st5" points="46,48.3 57.3,48.3 55.8,52 47.6,52 		"/>
		<polygon class="st5" points="45.8,47.8 57.6,47.8 56,51.4 47.4,51.4 		"/>
		<polygon class="st5" points="45.6,47.2 57.8,47.2 56.2,50.9 47.1,50.9 		"/>
		<polygon class="st5" points="45.3,46.7 58,46.7 56.4,50.4 46.9,50.4 		"/>
		<polygon class="st5" points="45.1,46.2 58.2,46.2 56.7,49.8 46.7,49.8 		"/>
		<polygon class="st5" points="44.9,45.7 58.5,45.7 56.9,49.3 46.4,49.3 		"/>
		<polygon class="st5" points="44.6,45.1 58.7,45.1 57.1,48.8 46.2,48.8 		"/>
		<polygon class="st5" points="44.4,44.6 58.9,44.6 57.3,48.3 46,48.3 		"/>
		<polygon class="st5" points="44.2,44.1 59.1,44.1 57.6,47.7 45.8,47.7 		"/>
		<polygon class="st5" points="44,43.6 59.4,43.6 57.8,47.2 45.5,47.2 		"/>
		<polygon class="st5" points="43.7,43 59.6,43 58,46.7 45.3,46.7 		"/>
		<polygon class="st5" points="43.5,42.5 59.8,42.5 58.2,46.2 45.1,46.2 		"/>
		<polygon class="st5" points="43.3,42 60.1,42 58.5,45.6 44.9,45.6 		"/>
		<polygon class="st5" points="43.1,41.5 60.3,41.5 58.7,45.1 44.6,45.1 		"/>
		<polygon class="st5" points="42.8,40.9 60.5,40.9 58.9,44.6 44.4,44.6 		"/>
		<polygon class="st5" points="42.6,40.4 60.7,40.4 59.2,44.1 44.2,44.1 		"/>
		<polygon class="st5" points="42.4,39.9 61,39.9 59.4,43.5 44,43.5 		"/>
		<polygon class="st5" points="42.1,39.4 61.2,39.4 59.6,43 43.7,43 		"/>
		<polygon class="st5" points="41.9,38.8 61.4,38.8 59.8,42.5 43.5,42.5 		"/>
		<polygon class="st5" points="41.7,38.3 61.6,38.3 60.1,42 43.3,42 		"/>
		<polygon class="st5" points="41.5,37.8 61.9,37.8 60.3,41.4 43,41.4 		"/>
		<polygon class="st5" points="41.2,37.2 62.1,37.2 60.5,40.9 42.8,40.9 		"/>
		<polygon class="st6" points="41,36.7 62.3,36.7 60.7,40.4 42.6,40.4 		"/>
		<polygon class="st5" points="40.8,36.2 62.5,36.2 61,39.8 42.4,39.8 		"/>
		<polygon class="st5" points="40.6,35.7 62.8,35.7 61.2,39.3 42.1,39.3 		"/>
		<polygon class="st5" points="40.3,35.1 63,35.1 61.4,38.8 41.9,38.8 		"/>
		<polygon class="st5" points="40.1,34.6 63.2,34.6 61.7,38.3 41.7,38.3 		"/>
		<polygon class="st5" points="39.9,34.1 63.5,34.1 61.9,37.7 41.5,37.7 		"/>
		<polygon class="st5" points="39.7,33.6 63.7,33.6 62.1,37.2 41.2,37.2 		"/>
		<polygon class="st5" points="39.4,33 63.9,33 62.3,36.7 41,36.7 		"/>
		<polygon class="st5" points="39.2,32.5 64.1,32.5 62.6,36.2 40.8,36.2 		"/>
		<polygon class="st5" points="39,32 64.4,32 62.8,35.6 40.5,35.6 		"/>
		<path class="st5" d="M38.8,31.5h25.8c0,0.1-0.1,0.1-0.1,0.2L63,35.1H40.3l-1.4-3.3C38.8,31.7,38.8,31.6,38.8,31.5z"/>
		<path class="st5" d="M38.6,30.9h26.2c-0.1,0.3-0.2,0.5-0.3,0.7l-1.3,2.9H40.1l-1.2-2.8C38.8,31.5,38.7,31.2,38.6,30.9z"/>
		<path class="st5" d="M38.4,30.4h26.5c-0.1,0.5-0.3,0.9-0.4,1.2l-1,2.4H39.9l-1-2.3C38.7,31.4,38.6,30.9,38.4,30.4z"/>
		<path class="st5" d="M38.3,29.9h26.8c-0.2,0.7-0.4,1.3-0.6,1.8l-0.8,1.9H39.6l-0.8-1.7C38.7,31.2,38.4,30.6,38.3,29.9z"/>
		<path class="st5" d="M38.2,29.3h27c-0.2,0.9-0.4,1.7-0.7,2.3L63.9,33H39.4l-0.5-1.2C38.6,31.1,38.3,30.2,38.2,29.3z"/>
		<path class="st5" d="M38.1,28.8h27.2c-0.2,1.1-0.5,2.1-0.8,2.8l-0.4,0.8h-25l-0.3-0.7C38.5,31,38.2,29.9,38.1,28.8z"/>
		<path class="st5" d="M38,28.3h27.4c-0.2,1.2-0.5,2.5-0.9,3.3L64.4,32H39l-0.1-0.2C38.5,30.8,38.2,29.5,38,28.3z"/>
		<path class="st5" d="M37.9,27.8h27.5c-0.1,1.3-0.4,2.7-0.8,3.7H38.7C38.3,30.4,38,29,37.9,27.8z"/>
		<path class="st5" d="M37.9,27.2h27.6c-0.1,1.2-0.3,2.6-0.7,3.7H38.6C38.2,29.8,37.9,28.4,37.9,27.2z"/>
		<path class="st5" d="M37.8,26.7h27.7c0,1.1-0.2,2.5-0.6,3.7H38.4C38.1,29.2,37.9,27.8,37.8,26.7z"/>
		<path class="st5" d="M37.8,26.2h27.7c0,0.1,0,0.2,0,0.3c0,1-0.2,2.3-0.4,3.4H38.3c-0.3-1.1-0.4-2.4-0.4-3.4
			C37.8,26.4,37.8,26.3,37.8,26.2z"/>
		<path class="st5" d="M37.9,25.7h27.6c0,0.3,0,0.5,0,0.8c0,0.9-0.1,1.9-0.3,2.8h-27c-0.2-1-0.3-2-0.3-2.8
			C37.8,26.2,37.8,25.9,37.9,25.7z"/>
	</g>
	<path class="st1" d="M51.7,35.2c4.8,0,8.7-3.9,8.7-8.7c0-4.8-3.9-8.7-8.7-8.7c-4.8,0-8.7,3.9-8.7,8.7
		C42.9,31.3,46.9,35.2,51.7,35.2z"/>
</g>
</svg>
