<?xml version="1.0" encoding="utf-8"?>
<!-- Generator: Adobe Illustrator 19.1.1, SVG Export Plug-In . SVG Version: 6.00 Build 0)  -->
<svg version="1.1" id="Слой_1" xmlns="http://www.w3.org/2000/svg" xmlns:xlink="http://www.w3.org/1999/xlink" x="0px" y="0px"
	 viewBox="0 0 67 91" style="enable-background:new 0 0 67 91;" xml:space="preserve">
<style type="text/css">
	.st0{fill-rule:evenodd;clip-rule:evenodd;fill:#E4C883;}
	.st1{fill-rule:evenodd;clip-rule:evenodd;fill:#6F8F9A;}
	.st2{fill-rule:evenodd;clip-rule:evenodd;fill:#F2D9B8;}
	.st3{fill-rule:evenodd;clip-rule:evenodd;fill:#D7BC97;}
	.st4{fill-rule:evenodd;clip-rule:evenodd;fill:#EECF86;}
	.st5{fill-rule:evenodd;clip-rule:evenodd;fill:#F8EFD7;}
	.st6{fill-rule:evenodd;clip-rule:evenodd;fill:#FFFFFF;}
	.st7{fill-rule:evenodd;clip-rule:evenodd;fill:#435B64;}
</style>
<g>
	<path class="st0" d="M12.4,15.7c-3.3,6.1-10,42.5-0.5,63.4c2.4,5.3,5.7,9.3,9.4,12.2h24c0.3-0.8,0.5-1.6,0.5-2.5
		C46.2,76.7,18.8,10.8,12.4,15.7z"/>
	<path class="st0" d="M53.9,15.6c3.3,6.1,9.5,40.2,0.1,61.2c-2.9,6.5-7.2,11.3-11.8,14.4H20.9c-0.3-0.8-0.5-1.6-0.5-2.5
		C19.9,76.7,47.5,10.8,53.9,15.6z"/>
	<path class="st1" d="M11.7,69.9C5.9,73.6,3.5,81.6,0.2,91.1c0.8,0.1,1.7,0.2,2.6,0.2h61.7c0.9,0,1.7-0.1,2.6-0.2
		c-3.3-9.5-5.7-17.5-11.5-21.2c-10-6.3-16-7.8-21.9-7.8C27.5,61.9,21.6,63.4,11.7,69.9z"/>
	<path class="st2" d="M25.3,40h16.6v24c0,8.1-16.6,9-16.6,0V40z"/>
	<polygon class="st3" points="41.9,55.1 41.9,52 25.3,52 25.3,63.3 	"/>
	<path class="st3" d="M33.6,9.5c35.1,0,20.9,46.4,0,46.4C12.7,55.9-1.5,9.5,33.6,9.5z"/>
	<path class="st2" d="M33.6,9.5c35.1,0,20.9,46.4,0,46.4V9.5z"/>
	<path class="st4" d="M40.7,14c5.8,2.9,9.4,7.7,10.6,15c1.2,7.4,2.2,6.3,4.7,0.9C58.6,24.4,52.4,1,34.2,1S8.5,19,11.1,28.9
		c2.5,9.8,4.5,6.6,6.1-0.8C18.8,20.6,26.6,13.2,40.7,14z"/>
	<path class="st5" d="M50,70.6c10.2-34.7-5.9-56.4-9.4-56.7C47.5,12.2,63.7,33.8,50,70.6z"/>
	<path class="st2" d="M41.9,63.2c-0.8,7.9-8.3,14.7-8.3,21.1c0-6.4-7.6-13.2-8.3-21.2L41.9,63.2z"/>
	<path class="st6" d="M33.6,81.4c3.6-5.4,7.4-8.5,12-10c2.3-0.7,6.2-1.5,8.3-0.4c-4-4.5-8.2-6.8-12-11.1
		C41.9,72.3,33.6,74.4,33.6,81.4z"/>
	<path class="st6" d="M33.6,81.4c2.7-5.8,6.9-10.6,11.5-12.1c2.3-0.7,4.4-0.5,6.5,0.5c-4-4.5-5.9-7.2-9.7-9.9
		C41.9,72.3,33.6,74.4,33.6,81.4z"/>
	<path class="st6" d="M33.6,81.4c-3.6-5.4-7.4-8.5-12-10c-2.3-0.7-6.2-1.5-8.3-0.4c4-4.5,8.2-6.8,12-11.1
		C25.4,72.3,33.7,74.4,33.6,81.4z"/>
	<path class="st6" d="M33.6,81.4c-2.7-5.8-6.9-10.6-11.5-12.1c-2.3-0.7-4.4-0.5-6.5,0.5c4-4.5,5.9-7.2,9.7-9.9
		C25.4,72.3,33.7,74.4,33.6,81.4z"/>
	<path class="st5" d="M18.2,77.4C6.7,6.6,35.3,13.8,40.7,14C32.7,5.5-3.8,4.9,18.2,77.4z"/>
	<g>
		<path class="st7" d="M15.6,67.7c-3,1.8-4.3,6.1-4.7,9.5c5.9-1.3,12.4,2.2,13.5,3.8c-4.4,2.5-5.7,4.8-8.1,8
			c0.5,0.7,1.2,1.4,1.9,2.3h2.2c-0.8-0.9-1.5-1.8-2.1-2.6c2.4-3.2,4.2-4.9,8.6-7.4c-1.1-1.6-8.7-7.7-14.6-6.5
			C13,71.5,13.3,70.1,15.6,67.7z"/>
		<path class="st7" d="M51.8,67.7c3,1.8,4.3,6.1,4.7,9.5C50.6,75.9,44,79.4,42.9,81c4.4,2.5,5.7,4.8,8.1,8c-0.5,0.7-1.2,1.4-1.9,2.3
			h-2.2c0.8-0.9,1.5-1.8,2.1-2.6c-2.4-3.2-4.2-4.9-8.6-7.4c1.1-1.6,8.7-7.7,14.6-6.5C54.4,71.5,54.1,70.1,51.8,67.7z"/>
		<path class="st7" d="M33.5,91.2c0.1-3.4,0.2-6.6,0.4-9c-0.7,2.5-1.1,5.6-1.2,9H33.5z"/>
	</g>
	<path class="st1" d="M41.7,37c0.6,0,1.1-0.1,1.6-0.1c2.5-0.2,5.8-1.8,5.9-2.4c0.1-0.6-0.2-3.4,0-4.1c0-0.4-4.7-0.2-7.5,0.1V31
		c2.3-0.2,6.2-0.3,6.2,0.5c0,0.4,0,2.6-0.6,3.3c-0.7,0.7-2.9,1.3-4.9,1.6c-0.2,0-0.4,0.1-0.6,0.1V37z M25.5,37
		c2.2,0.1,4.7,0.2,5.1-0.3c0.5-0.5,1.5-2.4,1.7-2.9c0.2-0.6,2.6-0.5,2.7,0c0.1,0.5,1.1,2.4,1.7,2.9c0.4,0.4,2.8,0.4,5.1,0.2v-0.6
		c-1.8,0.2-3.6,0-4.4-0.4c-0.9-0.4-2.1-2.6-1.7-3.3c0.4-0.7,3.6-1.4,5.7-1.7c0.1,0,0.2,0,0.4,0v-0.7c-0.3,0-0.7,0.1-0.9,0.1
		c-3.3,0.5-5.2,1-7,1.1c-2,0-3.7-0.5-7.4-1.1c-0.3,0-0.6-0.1-0.9-0.1V31c0.1,0,0.3,0,0.4,0c2.2,0.3,5.4,1,5.7,1.6
		c0.4,0.7-0.8,2.9-1.7,3.3c-0.8,0.4-2.6,0.5-4.4,0.4V37z M17.9,30.3c0.2,0.8-0.1,3.6,0,4.1c0.1,0.6,3.4,2.2,5.9,2.4
		c0.5,0,1,0.1,1.6,0.1v-0.6c-0.2,0-0.4,0-0.6-0.1c-2-0.3-4.2-0.9-4.9-1.5c-0.7-0.7-0.7-2.9-0.7-3.3c0-0.8,3.9-0.7,6.2-0.5v-0.7
		C22.7,30,18,29.9,17.9,30.3z"/>
</g>
</svg>
