<?xml version="1.0" encoding="utf-8"?>
<!-- Generator: Adobe Illustrator 19.1.1, SVG Export Plug-In . SVG Version: 6.00 Build 0)  -->
<svg version="1.1" id="Слой_1" xmlns="http://www.w3.org/2000/svg" xmlns:xlink="http://www.w3.org/1999/xlink" x="0px" y="0px"
	 viewBox="0 0 17 18" style="enable-background:new 0 0 17 18;" xml:space="preserve">
<style type="text/css">
	.st0{fill:#7394A0;}
</style>
<g>
	<path class="st0" d="M13.6,10.2V9H8.5v1h2.3v0.5H8.5v0.8h2.3v0.5H8.5v3.4L13.6,10.2z M8.5,9H3.4v1.2l5.1,5.1v-3.4H6.2v-0.5l0,0h2.3
		v-0.8H6.2V10l0,0h2.3V9z"/>
	<path class="st0" d="M8.5,17.9h8.3V8.5L8.5,0.1v8.4h7.4l0,0l-2.4,2.4l-5.1,5.1V17.9z M0.2,17.9h8.3v-2l-5.1-5.1L1.1,8.5h7.4V0.1
		L0.2,8.5V17.9z"/>
</g>
</svg>
