<?xml version="1.0" encoding="utf-8"?>
<!-- Generator: Adobe Illustrator 19.1.1, SVG Export Plug-In . SVG Version: 6.00 Build 0)  -->
<svg version="1.1" xmlns="http://www.w3.org/2000/svg" xmlns:xlink="http://www.w3.org/1999/xlink" x="0px" y="0px"
	 viewBox="0 0 17 18" style="enable-background:new 0 0 17 18;" xml:space="preserve">
<style type="text/css">
	.st0{display:none;fill:#7394A0;}
	.st1{display:none;}
	.st2{display:inline;fill:none;}
	.st3{display:inline;fill:#7394A0;}
	.st4{fill:#7394A0;}
</style>
<g id="Слой_1">
	<path class="st0" d="M13.6,10.2V9.1H8.5v1h2.3v0.5H8.5v0.8h2.3v0.5H8.5v3.4L13.6,10.2z M8.5,9.1H3.4v1.2l5.1,5.1v-3.4H6.2v-0.5l0,0
		h2.3v-0.8H6.2v-0.5l0,0h2.3V9.1z"/>
	<g class="st1">
		<polygon class="st2" points="3.4,10.9 8.5,16 13.6,10.9 15.9,8.6 16.8,8.5 8.5,8.6 1.1,8.6 		"/>
		<path class="st3" d="M16.8,8.5"/>
		<polyline class="st3" points="0.2,8.5 0.2,18 8.5,18 8.5,16 3.4,10.9 1.1,8.6 		"/>
		<polygon class="st3" points="15.9,8.6 13.6,10.9 8.5,16 8.5,18 16.8,18 16.8,8.5 		"/>
	</g>
</g>
<g id="Слой_2">
	<path class="st4" d="M8.5,15.9"/>
	<polygon class="st4" points="8.5,0.2 0.1,8.6 8.5,8.5 16.9,8.6 	"/>
</g>
</svg>
